<svg width="19" height="19" viewBox="0 0 19 19" fill="none" xmlns="http://www.w3.org/2000/svg">
<path d="M16.2044 5.56817L13.0622 2.4259C12.9838 2.34724 12.8906 2.28483 12.7881 2.24224C12.6855 2.19966 12.5756 2.17773 12.4645 2.17773C12.3535 2.17773 12.2435 2.19966 12.1409 2.24224C12.0384 2.28483 11.9452 2.34724 11.8669 2.4259L3.19803 11.0968C3.04001 11.255 2.95124 11.4695 2.95123 11.6931V14.8354C2.95123 15.0591 3.04013 15.2737 3.19836 15.432C3.3566 15.5902 3.57121 15.6791 3.79498 15.6791H6.93725C7.04801 15.6794 7.15772 15.6577 7.26006 15.6153C7.36239 15.573 7.45533 15.5108 7.5335 15.4323L13.7681 9.1977L14.171 10.8149L11.4717 13.5149C11.4445 13.5407 11.4227 13.5717 11.4076 13.6061C11.3926 13.6405 11.3845 13.6776 11.384 13.7151C11.3835 13.7526 11.3905 13.7899 11.4046 13.8247C11.4187 13.8595 11.4397 13.8911 11.4662 13.9176C11.4927 13.9442 11.5243 13.9652 11.559 13.9794C11.5938 13.9936 11.6311 14.0006 11.6686 14.0002C11.7061 13.9997 11.7432 13.9918 11.7776 13.9768C11.812 13.9618 11.8431 13.94 11.869 13.9129L14.6815 11.1004C14.7159 11.0661 14.7409 11.0234 14.754 10.9766C14.767 10.9298 14.7677 10.8803 14.756 10.8332L14.2315 8.73785L16.2044 6.76488C16.2833 6.68647 16.3459 6.59324 16.3886 6.49055C16.4313 6.38786 16.4533 6.27774 16.4533 6.16652C16.4533 6.05531 16.4313 5.94519 16.3886 5.8425C16.3459 5.73981 16.2833 5.64658 16.2044 5.56817ZM3.51373 14.8354V12.1396L6.49147 15.1166H3.79498C3.72039 15.1166 3.64885 15.087 3.59611 15.0342C3.54336 14.9815 3.51373 14.9099 3.51373 14.8354ZM7.16998 14.9999L3.63045 11.4604L9.98248 5.10832L13.5227 8.64785L7.16998 14.9999ZM15.8065 6.3634L13.92 8.24988L10.3805 4.71035L12.2669 2.82387C12.2931 2.79772 12.3241 2.77697 12.3582 2.76282C12.3924 2.74867 12.429 2.74138 12.4659 2.74138C12.5029 2.74138 12.5395 2.74867 12.5736 2.76282C12.6078 2.77697 12.6388 2.79772 12.6649 2.82387L15.8065 5.96613C15.8591 6.01886 15.8886 6.09029 15.8886 6.16477C15.8886 6.23924 15.8591 6.31068 15.8065 6.3634Z" fill="#512772"/>
</svg>
