<svg width="91" height="92" viewBox="0 0 91 92" fill="none" xmlns="http://www.w3.org/2000/svg">
<g clip-path="url(#clip0_1_94)">
<g opacity="0.11" clip-path="url(#clip1_1_94)">
<path d="M88.6825 6.94655C90.1842 9.34988 90.9396 12.1446 90.8531 14.9772C90.7665 17.8098 89.8419 20.5532 88.1963 22.8603C86.5506 25.1675 84.2577 26.9348 81.6076 27.9389C78.9575 28.9429 76.0691 29.1385 73.3078 28.501C70.5465 27.8635 68.0362 26.4215 66.0945 24.3574C64.1527 22.2932 62.8666 19.6996 62.3989 16.9045C61.9312 14.1094 62.3028 11.2384 63.4667 8.65454C64.6307 6.07065 66.5347 3.88995 68.938 2.38818C72.1608 0.374386 76.0515 -0.276703 79.7543 0.578159C83.4571 1.43302 86.6687 3.7238 88.6825 6.94655ZM15.774 52.5048C14.2722 50.1015 12.0915 48.1975 9.50762 47.0335C6.92373 45.8696 4.05272 45.498 1.25764 45.9657C-1.53744 46.4334 -4.13105 47.7195 -6.19522 49.6613C-8.25938 51.603 -9.70139 54.1133 -10.3389 56.8746C-10.9764 59.6359 -10.7807 62.5243 -9.77671 65.1744C-8.77267 67.8245 -7.00532 70.1174 -4.69816 71.7631C-2.391 73.4088 0.352347 74.3333 3.18497 74.4199C6.0176 74.5064 8.81228 73.7511 11.2156 72.2493C14.4384 70.2355 16.7291 67.0239 17.584 63.3211C18.4389 59.6183 17.7878 55.7276 15.774 52.5048ZM19.03 38.4016C21.4333 36.8999 23.3373 34.7192 24.5013 32.1353C25.6652 29.5514 26.0368 26.6804 25.5691 23.8853C25.1014 21.0902 23.8153 18.4966 21.8735 16.4324C19.9317 14.3683 17.4215 12.9263 14.6602 12.2888C11.8989 11.6513 9.01051 11.8469 6.36039 12.851C3.71026 13.855 1.41739 15.6223 -0.228294 17.9295C-1.87398 20.2367 -2.79855 22.98 -2.8851 25.8126C-2.97164 28.6453 -2.21627 31.4399 -0.714509 33.8433C1.29929 37.066 4.51085 39.3568 8.21365 40.2117C11.9165 41.0665 15.8072 40.4154 19.03 38.4016ZM50.2765 18.8767C52.6798 17.3749 54.5838 15.1942 55.7478 12.6103C56.9117 10.0264 57.2833 7.15542 56.8156 4.36034C56.3479 1.56526 55.0618 -1.02836 53.12 -3.09252C51.1782 -5.15669 48.668 -6.5987 45.9067 -7.2362C43.1454 -7.8737 40.257 -7.67805 37.6069 -6.67401C34.9568 -5.66997 32.6639 -3.90262 31.0182 -1.59547C29.3725 0.711694 28.448 3.45504 28.3614 6.28767C28.2749 9.12029 29.0302 11.915 30.532 14.3183C32.5458 17.541 35.7573 19.8318 39.4602 20.6867C43.163 21.5416 47.0537 20.8905 50.2765 18.8767ZM76.8141 39.019C74.4427 39.148 72.0691 38.8082 69.8291 38.019C67.5892 37.2298 65.5268 36.0066 63.7601 34.4194C60.1251 31.1709 55.534 29.1899 50.6767 28.7741C45.8195 28.3582 40.9584 29.5301 36.8242 32.1134C32.6899 34.6968 29.5058 38.5522 27.7502 43.1001C25.9947 47.6481 25.7626 52.643 27.0889 57.3342C28.4072 61.9253 27.8508 66.852 25.5416 71.0334C23.294 74.9928 22.4305 79.5885 23.0878 84.0937C23.7451 88.5989 25.8856 92.7564 29.1707 95.9086C32.4559 99.0608 36.6982 101.028 41.2267 101.498C45.7552 101.969 50.3113 100.917 54.1745 98.5075C56.4925 97.0684 58.4949 95.1746 60.0611 92.9405C65.1028 85.8952 72.7273 81.1309 81.2697 79.6879C86.5016 78.9064 91.2279 76.1299 94.4576 71.9402C97.6873 67.7506 99.1696 62.4733 98.5938 57.2148C98.018 51.9562 95.4287 47.1248 91.3689 43.7334C87.309 40.342 82.0939 38.654 76.8168 39.0233L76.8141 39.019Z" fill="#FFF1E8"/>
</g>
<path d="M65.4575 55.3075C65.1232 57.8481 63.8754 60.1803 61.9473 61.8682C60.0192 63.5562 57.5426 64.4846 54.98 64.48C40.0925 64.48 27.98 52.3675 27.98 37.48C27.9754 34.9174 28.9038 32.4408 30.5917 30.5126C32.2797 28.5845 34.6118 27.3368 37.1525 27.0025C37.795 26.924 38.4456 27.0555 39.0072 27.3772C39.5689 27.6989 40.0114 28.1936 40.2687 28.7875L44.2287 37.6281V37.6506C44.4258 38.1052 44.5072 38.6015 44.4656 39.0952C44.4241 39.589 44.2609 40.0647 43.9906 40.48C43.9569 40.5306 43.9212 40.5775 43.8837 40.6243L39.98 45.2518C41.3844 48.1056 44.3694 51.0643 47.2606 52.4725L51.8244 48.5893C51.8692 48.5517 51.9161 48.5166 51.965 48.4843C52.3799 48.2076 52.8573 48.0387 53.3539 47.9928C53.8506 47.947 54.3508 48.0257 54.8094 48.2218L54.8337 48.2331L63.6669 52.1912C64.2618 52.4477 64.7577 52.8898 65.0805 53.4515C65.4033 54.0132 65.5355 54.6643 65.4575 55.3075Z" fill="#FFF1E8"/>
</g>
<defs>
<clipPath id="clip0_1_94">
<rect width="91" height="91" fill="white" transform="translate(0 0.5)"/>
</clipPath>
<clipPath id="clip1_1_94">
<rect width="131.005" height="131.005" fill="white" transform="translate(-44.76 25.16) rotate(-32)"/>
</clipPath>
</defs>
</svg>
