<svg width="20" height="21" viewBox="0 0 20 21" fill="none" xmlns="http://www.w3.org/2000/svg">
<path fill-rule="evenodd" clip-rule="evenodd" d="M17.6 4.72001C17.6 3.84801 16.883 3.09201 15.958 3.15601C12.4527 3.4011 9.15388 4.90443 6.66916 7.38914C4.18444 9.87386 2.68112 13.1726 2.43603 16.678C2.37103 17.603 3.12803 18.32 4.00003 18.32H11C11.906 18.32 12.536 17.594 12.688 16.846C12.8598 15.9985 13.2776 15.2205 13.889 14.609C14.5005 13.9976 15.2785 13.5798 16.126 13.408C16.874 13.256 17.6 12.626 17.6 11.72V4.72001ZM16.042 4.35301C16.218 4.34101 16.4 4.48801 16.4 4.72001V6.13601C13.5348 6.28427 10.8262 7.48908 8.79741 9.5177C6.7686 11.5463 5.56355 14.2548 5.41503 17.12H4.00003C3.76803 17.12 3.62103 16.939 3.63303 16.762C3.85786 13.5451 5.23742 10.5178 7.51764 8.23762C9.79785 5.9574 12.8252 4.57784 16.042 4.35301ZM6.61703 17.12H8.42103C8.5657 15.0516 9.45279 13.1051 10.919 11.6389C12.3851 10.1728 14.3316 9.28568 16.4 9.14101V7.33701C13.8534 7.4841 11.4496 8.56203 9.64581 10.3658C7.84205 12.1696 6.76412 14.5733 6.61703 17.12ZM16.4 10.344C14.6504 10.4863 13.0083 11.2458 11.7671 12.4871C10.5259 13.7283 9.76628 15.3704 9.62403 17.12H11C11.198 17.12 11.444 16.942 11.511 16.607C11.7298 15.5285 12.2616 14.5383 13.0399 13.7602C13.8181 12.9821 14.8084 12.4506 15.887 12.232C16.222 12.164 16.4 11.918 16.4 11.72V10.344Z" fill="#2A799B"/>
</svg>
