<svg width="20" height="21" viewBox="0 0 20 21" fill="none" xmlns="http://www.w3.org/2000/svg">
<path fill-rule="evenodd" clip-rule="evenodd" d="M3.10002 10.3798C3.10002 9.47366 3.2785 8.57642 3.62526 7.73927C3.97201 6.90212 4.48026 6.14147 5.12099 5.50075C5.76171 4.86002 6.52236 4.35177 7.35951 4.00502C8.19666 3.65826 9.0939 3.47979 10 3.47979C10.9061 3.47979 11.8034 3.65826 12.6405 4.00502C13.4777 4.35177 14.2383 4.86002 14.8791 5.50075C15.5198 6.14147 16.028 6.90212 16.3748 7.73927C16.7216 8.57642 16.9 9.47366 16.9 10.3798C16.9 12.2098 16.1731 13.9648 14.8791 15.2588C13.5851 16.5528 11.83 17.2798 10 17.2798C8.17003 17.2798 6.41499 16.5528 5.12099 15.2588C3.82699 13.9648 3.10002 12.2098 3.10002 10.3798ZM10 2.27979C8.93632 2.27979 7.88303 2.4893 6.90029 2.89636C5.91755 3.30342 5.02461 3.90007 4.27246 4.65222C3.52031 5.40438 2.92366 6.29731 2.5166 7.28005C2.10954 8.26279 1.90002 9.31608 1.90002 10.3798C1.90002 11.4435 2.10954 12.4968 2.5166 13.4795C2.92366 14.4623 3.52031 15.3552 4.27246 16.1074C5.02461 16.8595 5.91755 17.4561 6.90029 17.8632C7.88303 18.2703 8.93632 18.4798 10 18.4798C12.1483 18.4798 14.2085 17.6264 15.7276 16.1074C17.2466 14.5883 18.1 12.528 18.1 10.3798C18.1 8.23153 17.2466 6.17127 15.7276 4.65222C14.2085 3.13318 12.1483 2.27979 10 2.27979ZM8.21803 9.86278C8.26103 9.75878 8.30302 9.66179 8.34402 9.57278L10.807 12.0358C10.7113 12.0799 10.6146 12.1219 10.517 12.1618C10.074 12.3438 9.53403 12.5248 8.99802 12.6748C8.46202 12.8248 7.94802 12.9398 7.55602 12.9948C7.49088 13.0045 7.42553 13.0128 7.36002 13.0198C7.36602 12.9608 7.37402 12.8958 7.38402 12.8238C7.44002 12.4328 7.55402 11.9178 7.70502 11.3808C7.85502 10.8458 8.03503 10.3058 8.21803 9.86278ZM11.782 10.8968C11.7419 10.9943 11.6999 11.091 11.656 11.1868L9.19302 8.72378C9.28202 8.68378 9.37902 8.64079 9.48302 8.59779C9.92602 8.41579 10.466 8.23479 11.001 8.08478C11.538 7.93478 12.053 7.81979 12.444 7.76479C12.516 7.75479 12.581 7.74579 12.64 7.73979C12.6334 7.80528 12.6254 7.87063 12.616 7.93579C12.56 8.32679 12.446 8.84178 12.295 9.37878C12.145 9.91378 11.965 10.4538 11.782 10.8968ZM13.215 6.56379C13.3623 6.59627 13.4976 6.66896 13.606 6.77379C13.7106 6.882 13.7832 7.01695 13.816 7.16378C13.84 7.26878 13.849 7.37379 13.851 7.46879C13.8526 7.68208 13.8365 7.89513 13.803 8.10578C13.719 8.64467 13.6011 9.17773 13.45 9.70178C13.29 10.2718 13.096 10.8578 12.892 11.3538C12.789 11.6018 12.682 11.8348 12.572 12.0348C12.4705 12.2303 12.3426 12.411 12.192 12.5718C12.0313 12.7224 11.8506 12.8503 11.655 12.9518C11.455 13.0618 11.222 13.1698 10.975 13.2718C10.478 13.4758 9.89102 13.6708 9.32202 13.8298C8.75402 13.9898 8.18602 14.1178 7.72602 14.1838C7.51532 14.2168 7.3023 14.2328 7.08902 14.2318C6.98671 14.2304 6.88483 14.2183 6.78502 14.1958C6.63777 14.1633 6.50242 14.0906 6.39402 13.9858C6.28936 13.8777 6.21668 13.7427 6.18402 13.5958C6.16144 13.4956 6.14938 13.3934 6.14802 13.2908C6.14697 13.0775 6.16303 12.8645 6.19602 12.6538C6.26202 12.1938 6.39103 11.6258 6.55002 11.0578C6.70902 10.4878 6.90402 9.90178 7.10802 9.40579C7.21002 9.15778 7.31802 8.92479 7.42802 8.72479C7.53402 8.53179 7.66002 8.33578 7.80802 8.18779C7.96859 8.03734 8.14891 7.9095 8.34402 7.80779C8.54402 7.69778 8.77802 7.59079 9.02602 7.48778C9.56563 7.27051 10.1172 7.0842 10.678 6.92979C11.2021 6.77871 11.7352 6.66048 12.274 6.57579C12.501 6.54379 12.722 6.52378 12.911 6.52778C13.005 6.53078 13.111 6.53878 13.215 6.56379Z" fill="#EC266C"/>
</svg>
