<svg width="24" height="28" viewBox="0 0 24 28" fill="none" xmlns="http://www.w3.org/2000/svg">
<path opacity="0.2" d="M21 7.37988L12 15.6299L3 7.37988H21Z" fill="#FFC65C"/>
<path d="M21 6.62988H3C2.80109 6.62988 2.61032 6.7089 2.46967 6.84955C2.32902 6.99021 2.25 7.18097 2.25 7.37988V20.1299C2.25 20.5277 2.40804 20.9092 2.68934 21.1905C2.97064 21.4718 3.35218 21.6299 3.75 21.6299H20.25C20.6478 21.6299 21.0294 21.4718 21.3107 21.1905C21.592 20.9092 21.75 20.5277 21.75 20.1299V7.37988C21.75 7.18097 21.671 6.99021 21.5303 6.84955C21.3897 6.7089 21.1989 6.62988 21 6.62988ZM12 14.6127L4.92844 8.12988H19.0716L12 14.6127ZM9.25406 14.1299L3.75 19.1746V9.0852L9.25406 14.1299ZM10.3641 15.1471L11.4891 16.183C11.6274 16.31 11.8084 16.3805 11.9963 16.3805C12.1841 16.3805 12.3651 16.31 12.5034 16.183L13.6284 15.1471L19.0659 20.1299H4.92844L10.3641 15.1471ZM14.7459 14.1299L20.25 9.08426V19.1755L14.7459 14.1299Z" fill="#FFC65C"/>
</svg>
