<svg width="148" height="36" viewBox="0 0 148 36" fill="none" xmlns="http://www.w3.org/2000/svg">
<g clip-path="url(#clip0_1_788)">
<path d="M31.08 9H28.12L26.24 7.095C25.561 6.405 24.642 6.012 23.68 6H19.98C19.554 4.27 18.039 3.041 16.28 3V12.54C16.356 14.055 16.947 15.496 17.952 16.62C19.608 18.233 21.773 19.2 24.065 19.35L29.171 17.28C30.383 16.787 31.32 15.777 31.731 14.52L32.56 12.225C32.582 12.071 32.582 11.914 32.56 11.76V10.5C32.56 9.672 31.897 9 31.08 9ZM23.68 12C22.863 12 22.2 11.328 22.2 10.5C22.2 9.672 22.863 9 23.68 9C24.497 9 25.16 9.672 25.16 10.5C25.16 11.328 24.497 12 23.68 12Z" fill="#FFF1E8"/>
<path d="M16.842 17.6096C15.81 16.4636 15.135 15.0336 14.904 13.4996H8.88002C8.08002 13.5536 7.29602 13.2546 6.72902 12.6796C6.16202 12.1056 5.86702 11.3106 5.92002 10.4996C5.92002 9.67162 5.25702 8.99962 4.44002 8.99962C3.62302 8.99962 2.96002 9.67162 2.96002 10.4996C2.97502 11.5406 3.21802 12.5656 3.67002 13.4996C4.17002 14.4806 4.95502 15.2826 5.92002 15.7946V32.9996H10.36V25.4996H19.24V32.9996H23.68V20.8046C21.098 20.5986 18.674 19.4656 16.842 17.6096ZM42.325 7.49962H49.876C50.859 7.49962 51.711 7.54662 52.435 7.64062C53.157 7.72762 53.773 7.85662 54.282 8.02762C54.791 8.19762 55.204 8.40562 55.522 8.65162C56.121 9.08662 56.526 9.74362 56.65 10.4806C56.794 11.2556 56.788 12.0526 56.632 12.8266C56.558 13.1916 56.413 13.5376 56.206 13.8466C55.972 14.1746 55.678 14.4546 55.34 14.6716C54.902 14.9506 54.425 15.1606 53.925 15.2956C53.354 15.4606 52.66 15.5896 51.844 15.6826C51.035 15.7706 50.082 15.8146 48.984 15.8146V16.9666L50.094 17.1856V20.9996H42.324V17.1856L43.434 16.9646V11.5346L42.324 11.3146L42.325 7.49962ZM48.985 13.3976C49.32 13.3976 49.623 13.3796 49.895 13.3436C50.172 13.3096 50.407 13.2356 50.597 13.1246C50.794 13.0076 50.951 12.8326 51.048 12.6236C51.152 12.4066 51.205 12.1136 51.205 11.7446C51.205 11.3876 51.153 11.1026 51.048 10.8926C50.953 10.6846 50.795 10.5126 50.598 10.4006C50.381 10.2806 50.142 10.2056 49.895 10.1806C49.593 10.1436 49.289 10.1256 48.985 10.1276V13.3976ZM65.956 20.9996L65.487 18.7316H61.861L61.404 20.9996H56.469V16.5706L57.536 16.3496L60.092 7.49962H67.256L69.823 16.3496L70.889 16.5706V20.9996H65.956ZM62.608 15.7186H64.741L63.676 10.6286L62.608 15.7186ZM75.407 21.0086L71.861 11.5256L70.544 11.3146V7.49962H78.962V11.3146L78.009 11.5246L79.51 16.5266L81.009 11.5256L80.056 11.3146V7.49962H88.477V11.3146L87.523 11.5246L89.022 16.5266L90.523 11.5256L89.568 11.3146V7.49962H95.951V11.3146L94.642 11.5246L91.095 21.0086H84.921L83.247 15.8396L81.582 21.0086H75.407ZM103.634 13.2746L105.993 12.7036V15.8146L103.634 15.2446V16.9646L104.744 17.2196V20.9996H96.974V17.1856L98.084 16.9646V11.5516L96.974 11.3326V7.49962H107.703V11.9996H106.245C106.093 11.8596 105.934 11.7276 105.768 11.6036C105.595 11.4686 105.398 11.3486 105.178 11.2436C104.952 11.1276 104.713 11.0386 104.467 10.9796C104.195 10.9076 103.915 10.8716 103.634 10.8746V13.2746ZM115.567 17.6246C116.271 17.6276 116.97 17.5066 117.632 17.2646C117.926 17.1596 118.191 17.0396 118.428 16.9046C118.665 16.7696 118.874 16.6346 119.053 16.4996H120.502V20.9996H108.907V17.1856L110.017 16.9646V11.5516L108.907 11.3326V7.49962H120.502V11.9996H119.106C118.899 11.8566 118.684 11.7246 118.464 11.6036C118.203 11.4606 117.93 11.3406 117.65 11.2436C117.337 11.1276 117.014 11.0386 116.686 10.9796C116.318 10.9076 115.943 10.8726 115.567 10.8746V13.2746L118.169 12.7036V15.8146L115.567 15.2446V17.6246ZM127.101 14.0926C127.101 14.5946 127.165 15.0296 127.292 15.3926C127.419 15.7556 127.603 16.0546 127.847 16.2886C128.095 16.5236 128.394 16.6966 128.75 16.8076C129.106 16.9186 129.515 16.9736 129.971 16.9736C130.515 16.9736 131.156 16.9066 131.896 16.7726C132.636 16.6376 133.455 16.4296 134.35 16.1486V20.2616C132.635 20.8516 130.837 21.1546 129.026 21.1586C127.98 21.1586 126.999 21.0266 126.086 20.7626C125.212 20.5166 124.402 20.0816 123.71 19.4876C123.023 18.8726 122.481 18.1106 122.124 17.2556C121.736 16.3586 121.542 15.3056 121.542 14.0906C121.542 12.9076 121.72 11.8886 122.072 11.0326C122.401 10.2176 122.918 9.49362 123.58 8.92362C124.266 8.34962 125.064 7.93062 125.921 7.69362C126.91 7.41962 127.931 7.28562 128.955 7.29762C130.073 7.28762 131.188 7.41062 132.276 7.66662C132.718 7.77162 133.105 7.89162 133.44 8.02662C133.78 8.15662 134.085 8.28162 134.35 8.40562V12.4486H131.741C131.487 12.0646 131.148 11.7456 130.752 11.5166C130.413 11.3226 130.031 11.2186 129.642 11.2166C128.981 11.2186 128.349 11.4906 127.89 11.9726C127.653 12.2186 127.462 12.5216 127.317 12.8786C127.166 13.2646 127.093 13.6766 127.101 14.0926ZM147.688 7.49962V11.9996H146.231C146.125 11.8616 146.012 11.7296 145.892 11.6036C145.63 11.3276 145.31 11.1136 144.956 10.9796C144.764 10.9086 144.562 10.8726 144.358 10.8746V16.9646L145.468 17.1856V20.9996H137.698V17.1856L138.808 16.9646V10.8746C138.593 10.8746 138.393 10.9096 138.21 10.9796C137.855 11.1136 137.535 11.3266 137.273 11.6036C137.146 11.7386 137.033 11.8706 136.934 11.9996H135.478V7.49962H147.688ZM83.339 26.6396H82.569V28.4996H81.97V23.4446H83.28C83.857 23.4446 84.311 23.5976 84.641 23.9026C84.977 24.2026 85.144 24.5926 85.144 25.0726C85.144 25.5226 84.979 25.8976 84.649 26.1976C84.319 26.4926 83.882 26.6396 83.339 26.6396ZM83.287 23.9616H82.569V26.1216H83.339C83.713 26.1216 84.008 26.0246 84.219 25.8296C84.429 25.6356 84.545 25.3596 84.538 25.0716C84.552 24.7666 84.433 24.4706 84.212 24.2616C83.994 24.0626 83.687 23.9616 83.287 23.9616ZM88.785 28.4996H86.003V23.4446H88.748V23.9776H86.602V25.7096H88.497V26.2426H86.602V27.9676H88.785V28.4996ZM92.565 23.9776H91.218V28.4996H90.62V23.9776H89.274V23.4446H92.565V23.9776ZM97.834 27.1566C97.834 27.6026 97.684 27.9476 97.383 28.1916C97.082 28.4316 96.694 28.5516 96.221 28.5516C95.698 28.5516 95.254 28.4436 94.889 28.2296V27.5766C95.25 27.8516 95.688 27.9896 96.206 27.9896C96.517 27.9896 96.761 27.9186 96.939 27.7796C97.119 27.6326 97.219 27.4066 97.205 27.1716C97.207 27.0706 97.185 26.9706 97.14 26.8796C97.094 26.7816 97.022 26.6986 96.933 26.6396C96.847 26.5706 96.755 26.5096 96.657 26.4596C96.502 26.3696 96.341 26.2896 96.176 26.2196C96.011 26.1476 95.848 26.0696 95.688 25.9866C95.552 25.9086 95.422 25.8206 95.297 25.7246C95.158 25.6156 95.046 25.4736 94.972 25.3116C94.9 25.1416 94.864 24.9576 94.868 24.7716C94.868 24.3416 95.017 24.0066 95.319 23.7666C95.624 23.5226 96.008 23.3996 96.466 23.3996C96.896 23.3996 97.26 23.4776 97.562 23.6316V24.2696C97.239 24.0636 96.863 23.9586 96.481 23.9696C96.179 23.9696 95.941 24.0416 95.762 24.1866C95.589 24.3166 95.49 24.5246 95.496 24.7416C95.496 24.8616 95.519 24.9696 95.564 25.0646C95.612 25.1586 95.697 25.2486 95.815 25.3346C95.934 25.4136 96.034 25.4766 96.119 25.5216C96.201 25.5626 96.333 25.6226 96.511 25.7016C96.678 25.7766 96.807 25.8366 96.896 25.8816C96.984 25.9226 97.097 25.9896 97.236 26.0846C97.476 26.2176 97.658 26.4376 97.747 26.6996C97.806 26.8386 97.834 26.9916 97.834 27.1566ZM99.873 26.3696L99.777 26.6546H101.546L101.45 26.3626L100.673 23.9326C100.613 24.1466 100.347 24.9596 99.873 26.3696ZM99.163 28.4996H98.519L100.258 23.4446H101.087L102.796 28.4996H102.153L101.716 27.1726H99.607L99.163 28.4996ZM106.351 28.4996H103.628V23.4446H104.228V27.9526H106.351V28.4996ZM111.417 25.9496C111.417 26.7446 111.215 27.3796 110.811 27.8546C110.411 28.3246 109.868 28.5596 109.183 28.5596C108.506 28.5596 107.963 28.3226 107.555 27.8476C107.145 27.3716 106.94 26.7406 106.94 25.9496C106.94 25.1546 107.14 24.5216 107.54 24.0526C107.944 23.5826 108.488 23.3476 109.175 23.3476C109.875 23.3476 110.423 23.5826 110.818 24.0526C111.218 24.5176 111.417 25.1506 111.417 25.9496ZM107.569 25.9496C107.569 26.5756 107.714 27.0706 108.006 27.4346C108.302 27.7996 108.694 27.9826 109.183 27.9826C109.69 27.9826 110.082 27.8026 110.359 27.4426C110.64 27.0826 110.781 26.5846 110.781 25.9496C110.781 25.3156 110.64 24.8176 110.359 24.4576C110.078 24.0976 109.683 23.9176 109.175 23.9176C108.672 23.9176 108.277 24.1006 107.991 24.4646C107.71 24.8246 107.569 25.3196 107.569 25.9496ZM112.936 28.4996H112.336V23.4446H113.091L114.342 25.5746L115.607 27.7646C115.583 27.0376 115.573 26.3096 115.578 25.5826V23.4446H116.177V28.4996H115.422L114.172 26.3846C113.779 25.7306 113.397 25.0706 113.025 24.4046L112.899 24.1726C112.923 24.6926 112.936 25.4246 112.936 26.3696V28.4996ZM120.028 26.3696L119.932 26.6546H121.7L121.604 26.3626L120.827 23.9326C120.768 24.1466 120.502 24.9596 120.028 26.3696ZM119.318 28.4996H118.674L120.413 23.4446H121.242L122.951 28.4996H122.307L121.871 27.1726H119.762L119.318 28.4996ZM124.382 28.4996H123.783V23.4446H124.538L125.788 25.5746L127.054 27.7646C127.03 27.0376 127.021 26.3096 127.024 25.5826V23.4446H127.623V28.4996H126.869L125.618 26.3846C125.225 25.7306 124.843 25.0706 124.471 24.4046L124.345 24.1726C124.37 24.6926 124.382 25.4246 124.382 26.3696V28.4996ZM130.273 28.4996H128.763V23.4446H130.243C130.977 23.4446 131.579 23.6776 132.049 24.1426C132.522 24.6026 132.759 25.1996 132.759 25.9346C132.759 26.6656 132.537 27.2746 132.099 27.7646C131.665 28.2556 131.055 28.4996 130.271 28.4996H130.273ZM130.234 23.9846H129.368V27.9666H130.264C130.881 27.9666 131.347 27.7746 131.662 27.3896C131.978 26.9996 132.136 26.5146 132.136 25.9346C132.136 25.3836 131.958 24.9216 131.603 24.5466C131.252 24.1716 130.796 23.9846 130.234 23.9846ZM138.21 27.1566C138.21 27.6026 138.059 27.9476 137.758 28.1916C137.456 28.4316 137.07 28.5516 136.597 28.5516C136.074 28.5516 135.629 28.4436 135.265 28.2296V27.5766C135.624 27.8516 136.064 27.9896 136.582 27.9896C136.893 27.9896 137.137 27.9186 137.314 27.7796C137.495 27.6326 137.595 27.4066 137.581 27.1716C137.583 27.0706 137.56 26.9696 137.514 26.8796C137.468 26.7816 137.396 26.6986 137.307 26.6396C137.222 26.5706 137.13 26.5096 137.033 26.4596C136.878 26.3696 136.717 26.2896 136.552 26.2196C136.387 26.1476 136.224 26.0696 136.064 25.9866C135.927 25.9086 135.796 25.8206 135.672 25.7246C135.532 25.6156 135.42 25.4736 135.346 25.3116C135.274 25.1416 135.239 24.9576 135.242 24.7716C135.242 24.3416 135.393 24.0066 135.694 23.7666C135.999 23.5226 136.382 23.3996 136.841 23.3996C137.27 23.3996 137.636 23.4776 137.936 23.6316V24.2696C137.613 24.0636 137.237 23.9586 136.856 23.9696C136.554 23.9696 136.315 24.0416 136.138 24.1866C135.965 24.3166 135.866 24.5246 135.871 24.7416C135.871 24.8616 135.894 24.9696 135.938 25.0646C135.987 25.1586 136.071 25.2486 136.19 25.3346C136.308 25.4136 136.409 25.4766 136.493 25.5216C136.576 25.5626 136.708 25.6226 136.885 25.7016C137.052 25.7766 137.181 25.8366 137.27 25.8816C137.359 25.9226 137.471 25.9896 137.61 26.0846C137.85 26.2186 138.032 26.4376 138.121 26.6996C138.18 26.8386 138.21 26.9916 138.21 27.1566ZM140.573 26.6396H139.804V28.4996H139.204V23.4446H140.514C141.091 23.4446 141.546 23.5976 141.876 23.9026C142.212 24.2026 142.379 24.5926 142.379 25.0726C142.379 25.5226 142.213 25.8976 141.883 26.1976C141.552 26.4926 141.115 26.6396 140.573 26.6396ZM140.522 23.9616H139.804V26.1216H140.573C140.948 26.1216 141.241 26.0246 141.454 25.8296C141.663 25.6356 141.78 25.3596 141.772 25.0716C141.786 24.7666 141.667 24.4706 141.447 24.2616C141.229 24.0626 140.921 23.9616 140.522 23.9616ZM144.281 26.3696L144.183 26.6546H145.952L145.857 26.3626L145.078 23.9326C145.019 24.1466 144.753 24.9596 144.279 26.3696H144.281ZM143.57 28.4996H142.925L144.664 23.4446H145.493L147.205 28.4996H146.56L146.125 27.1726H144.016L143.572 28.4996H143.57Z" fill="#FFF1E8"/>
</g>
<defs>
<clipPath id="clip0_1_788">
<rect width="148" height="36" fill="white"/>
</clipPath>
</defs>
</svg>
