<svg width="24" height="28" viewBox="0 0 24 28" fill="none" xmlns="http://www.w3.org/2000/svg">
<path opacity="0.2" d="M21 14.1299C21 15.9099 20.4722 17.65 19.4832 19.13C18.4943 20.6101 17.0887 21.7636 15.4442 22.4448C13.7996 23.126 11.99 23.3042 10.2442 22.957C8.49836 22.6097 6.89472 21.7525 5.63604 20.4938C4.37737 19.2352 3.5202 17.6315 3.17294 15.8857C2.82567 14.1399 3.0039 12.3303 3.68509 10.6857C4.36628 9.0412 5.51983 7.63559 6.99987 6.64666C8.47991 5.65772 10.22 5.12988 12 5.12988C14.387 5.12988 16.6761 6.07809 18.364 7.76592C20.0518 9.45375 21 11.7429 21 14.1299Z" fill="#FFC65C"/>
<path d="M12 4.37988C10.0716 4.37988 8.18657 4.95171 6.58319 6.02305C4.97982 7.0944 3.73013 8.61714 2.99218 10.3987C2.25422 12.1803 2.06114 14.1407 2.43735 16.032C2.81355 17.9233 3.74215 19.6606 5.10571 21.0242C6.46928 22.3877 8.20656 23.3163 10.0979 23.6925C11.9892 24.0687 13.9496 23.8757 15.7312 23.1377C17.5127 22.3998 19.0355 21.1501 20.1068 19.5467C21.1782 17.9433 21.75 16.0583 21.75 14.1299C21.7473 11.5449 20.7192 9.06649 18.8913 7.23861C17.0634 5.41072 14.585 4.38261 12 4.37988ZM12 22.3799C10.3683 22.3799 8.77326 21.896 7.41655 20.9895C6.05984 20.083 5.00242 18.7945 4.378 17.287C3.75358 15.7795 3.5902 14.1207 3.90853 12.5204C4.22685 10.92 5.01259 9.45004 6.16637 8.29625C7.32016 7.14247 8.79017 6.35673 10.3905 6.0384C11.9909 5.72008 13.6497 5.88345 15.1571 6.50788C16.6646 7.1323 17.9531 8.18972 18.8596 9.54643C19.7661 10.9031 20.25 12.4982 20.25 14.1299C20.2475 16.3172 19.3775 18.4141 17.8309 19.9608C16.2843 21.5074 14.1873 22.3774 12 22.3799ZM18 14.1299C18 14.3288 17.921 14.5196 17.7803 14.6602C17.6397 14.8009 17.4489 14.8799 17.25 14.8799H12C11.8011 14.8799 11.6103 14.8009 11.4697 14.6602C11.329 14.5196 11.25 14.3288 11.25 14.1299V8.87988C11.25 8.68097 11.329 8.49021 11.4697 8.34955C11.6103 8.2089 11.8011 8.12988 12 8.12988C12.1989 8.12988 12.3897 8.2089 12.5303 8.34955C12.671 8.49021 12.75 8.68097 12.75 8.87988V13.3799H17.25C17.4489 13.3799 17.6397 13.4589 17.7803 13.5996C17.921 13.7402 18 13.931 18 14.1299Z" fill="#FFC65C"/>
</svg>
