<svg width="24" height="28" viewBox="0 0 24 28" fill="none" xmlns="http://www.w3.org/2000/svg">
<path opacity="0.2" d="M12 4.37988C10.0109 4.37988 8.10322 5.17006 6.6967 6.57658C5.29018 7.9831 4.5 9.89076 4.5 11.8799C4.5 18.6299 12 23.8799 12 23.8799C12 23.8799 19.5 18.6299 19.5 11.8799C19.5 9.89076 18.7098 7.9831 17.3033 6.57658C15.8968 5.17006 13.9891 4.37988 12 4.37988ZM12 14.8799C11.4067 14.8799 10.8266 14.7039 10.3333 14.3743C9.83994 14.0446 9.45542 13.5761 9.22836 13.0279C9.0013 12.4798 8.94189 11.8766 9.05764 11.2946C9.1734 10.7127 9.45912 10.1781 9.87868 9.75856C10.2982 9.339 10.8328 9.05328 11.4147 8.93753C11.9967 8.82177 12.5999 8.88118 13.1481 9.10824C13.6962 9.33531 14.1648 9.71982 14.4944 10.2132C14.8241 10.7065 15 11.2865 15 11.8799C15 12.6755 14.6839 13.4386 14.1213 14.0012C13.5587 14.5638 12.7956 14.8799 12 14.8799Z" fill="#FFC65C"/>
<path d="M12 8.12988C11.2583 8.12988 10.5333 8.34982 9.91661 8.76187C9.29993 9.17393 8.81928 9.7596 8.53545 10.4448C8.25162 11.13 8.17736 11.884 8.32205 12.6115C8.46675 13.3389 8.8239 14.0071 9.34835 14.5315C9.8728 15.056 10.541 15.4131 11.2684 15.5578C11.9958 15.7025 12.7498 15.6283 13.4351 15.3444C14.1203 15.0606 14.706 14.58 15.118 13.9633C15.5301 13.3466 15.75 12.6216 15.75 11.8799C15.75 10.8853 15.3549 9.93149 14.6517 9.22823C13.9484 8.52497 12.9946 8.12988 12 8.12988ZM12 14.1299C11.555 14.1299 11.12 13.9979 10.75 13.7507C10.38 13.5035 10.0916 13.1521 9.92127 12.7409C9.75097 12.3298 9.70642 11.8774 9.79323 11.4409C9.88005 11.0045 10.0943 10.6036 10.409 10.2889C10.7237 9.97422 11.1246 9.75993 11.561 9.67312C11.9975 9.5863 12.4499 9.63086 12.861 9.80115C13.2722 9.97145 13.6236 10.2598 13.8708 10.6298C14.118 10.9999 14.25 11.4349 14.25 11.8799C14.25 12.4766 14.0129 13.0489 13.591 13.4709C13.169 13.8928 12.5967 14.1299 12 14.1299ZM12 3.62988C9.81273 3.63236 7.71575 4.50235 6.16911 6.04899C4.62247 7.59563 3.75248 9.69261 3.75 11.8799C3.75 14.8236 5.11031 17.9436 7.6875 20.9033C8.84552 22.2407 10.1489 23.445 11.5734 24.4939C11.6995 24.5823 11.8498 24.6297 12.0037 24.6297C12.1577 24.6297 12.308 24.5823 12.4341 24.4939C13.856 23.4446 15.1568 22.2403 16.3125 20.9033C18.8859 17.9436 20.25 14.8236 20.25 11.8799C20.2475 9.69261 19.3775 7.59563 17.8309 6.04899C16.2843 4.50235 14.1873 3.63236 12 3.62988ZM12 22.9424C10.4503 21.7236 5.25 17.2471 5.25 11.8799C5.25 10.0897 5.96116 8.37278 7.22703 7.10691C8.4929 5.84104 10.2098 5.12988 12 5.12988C13.7902 5.12988 15.5071 5.84104 16.773 7.10691C18.0388 8.37278 18.75 10.0897 18.75 11.8799C18.75 17.2452 13.5497 21.7236 12 22.9424Z" fill="#FFC65C"/>
</svg>
