<svg width="91" height="91" viewBox="0 0 91 91" fill="none" xmlns="http://www.w3.org/2000/svg">
<g clip-path="url(#clip0_1_63)">
<g opacity="0.11" clip-path="url(#clip1_1_63)">
<path d="M88.6824 6.44655C90.1842 8.84988 90.9396 11.6446 90.853 14.4772C90.7665 17.3098 89.8419 20.0532 88.1962 22.3603C86.5505 24.6675 84.2577 26.4348 81.6075 27.4389C78.9574 28.4429 76.0691 28.6385 73.3078 28.001C70.5464 27.3635 68.0362 25.9215 66.0944 23.8574C64.1526 21.7932 62.8666 19.1996 62.3988 16.4045C61.9311 13.6094 62.3027 10.7384 63.4667 8.15454C64.6306 5.57065 66.5346 3.38995 68.938 1.88818C72.1607 -0.125614 76.0515 -0.776703 79.7543 0.0781591C83.4571 0.933017 86.6686 3.2238 88.6824 6.44655ZM15.7739 52.0048C14.2722 49.6015 12.0915 47.6975 9.50757 46.5335C6.92369 45.3696 4.05268 44.998 1.2576 45.4657C-1.53749 45.9334 -4.1311 47.2195 -6.19526 49.1613C-8.25943 51.103 -9.70143 53.6133 -10.3389 56.3746C-10.9764 59.1359 -10.7808 62.0243 -9.77675 64.6744C-8.77271 67.3245 -7.00537 69.6174 -4.69821 71.2631C-2.39105 72.9088 0.352301 73.8333 3.18493 73.9199C6.01755 74.0064 8.81223 73.2511 11.2156 71.7493C14.4383 69.7355 16.7291 66.5239 17.5839 62.8211C18.4388 59.1183 17.7877 55.2276 15.7739 52.0048ZM19.0299 37.9016C21.4332 36.3999 23.3373 34.2192 24.5012 31.6353C25.6652 29.0514 26.0368 26.1804 25.569 23.3853C25.1013 20.5902 23.8152 17.9966 21.8735 15.9324C19.9317 13.8683 17.4214 12.4263 14.6601 11.7888C11.8988 11.1513 9.01046 11.3469 6.36034 12.351C3.71022 13.355 1.41734 15.1223 -0.22834 17.4295C-1.87402 19.7367 -2.7986 22.48 -2.88514 25.3126C-2.97169 28.1453 -2.21632 30.9399 -0.714555 33.3433C1.29925 36.566 4.5108 38.8568 8.21361 39.7117C11.9164 40.5665 15.8072 39.9154 19.0299 37.9016ZM50.2764 18.3767C52.6797 16.8749 54.5838 14.6942 55.7477 12.1103C56.9117 9.52643 57.2833 6.65542 56.8155 3.86034C56.3478 1.06526 55.0617 -1.52836 53.12 -3.59252C51.1782 -5.65669 48.6679 -7.0987 45.9066 -7.7362C43.1453 -8.3737 40.257 -8.17805 37.6068 -7.17401C34.9567 -6.16997 32.6638 -4.40262 31.0182 -2.09547C29.3725 0.211694 28.4479 2.95504 28.3614 5.78767C28.2748 8.62029 29.0302 11.415 30.5319 13.8183C32.5457 17.041 35.7573 19.3318 39.4601 20.1867C43.1629 21.0416 47.0537 20.3905 50.2764 18.3767ZM76.814 38.519C74.4426 38.648 72.069 38.3082 69.8291 37.519C67.5891 36.7298 65.5268 35.5066 63.7601 33.9194C60.1251 30.6709 55.534 28.6899 50.6767 28.2741C45.8194 27.8582 40.9584 29.0301 36.8241 31.6134C32.6899 34.1968 29.5057 38.0522 27.7502 42.6001C25.9946 47.1481 25.7626 52.143 27.0888 56.8342C28.4072 61.4253 27.8508 66.352 25.5416 70.5334C23.2939 74.4928 22.4305 79.0885 23.0878 83.5937C23.745 88.0989 25.8855 92.2564 29.1707 95.4086C32.4558 98.5608 36.6982 100.528 41.2266 100.998C45.7551 101.469 50.3113 100.417 54.1745 98.0075C56.4925 96.5684 58.4949 94.6746 60.0611 92.4405C65.1028 85.3952 72.7272 80.6309 81.2696 79.1879C86.5016 78.4064 91.2278 75.6299 94.4576 71.4402C97.6873 67.2506 99.1696 61.9733 98.5938 56.7148C98.0179 51.4562 95.4287 46.6248 91.3688 43.2334C87.309 39.842 82.0938 38.154 76.8167 38.5233L76.814 38.519Z" fill="#FFF1E8"/>
</g>
<path d="M45.98 24.98C41.6054 24.9849 37.4115 26.7249 34.3182 29.8182C31.2249 32.9115 29.4849 37.1054 29.48 41.48C29.48 55.5987 44.48 66.2619 45.1194 66.7081C45.3716 66.8848 45.672 66.9796 45.98 66.9796C46.2879 66.9796 46.5884 66.8848 46.8406 66.7081C47.48 66.2619 62.48 55.5987 62.48 41.48C62.475 37.1054 60.735 32.9115 57.6418 29.8182C54.5485 26.7249 50.3545 24.9849 45.98 24.98ZM45.98 35.48C47.1667 35.48 48.3267 35.8319 49.3134 36.4912C50.3001 37.1505 51.0691 38.0875 51.5233 39.1839C51.9774 40.2802 52.0962 41.4866 51.8647 42.6505C51.6332 43.8144 51.0617 44.8835 50.2226 45.7226C49.3835 46.5617 48.3144 47.1332 47.1505 47.3647C45.9866 47.5962 44.7802 47.4774 43.6839 47.0233C42.5875 46.5691 41.6505 45.8001 40.9912 44.8134C40.3319 43.8267 39.98 42.6667 39.98 41.48C39.98 39.8887 40.6121 38.3626 41.7373 37.2373C42.8626 36.1121 44.3887 35.48 45.98 35.48Z" fill="#FFF1E8"/>
</g>
<defs>
<clipPath id="clip0_1_63">
<rect width="91" height="91" fill="white"/>
</clipPath>
<clipPath id="clip1_1_63">
<rect width="131.005" height="131.005" fill="white" transform="translate(-44.76 24.66) rotate(-32)"/>
</clipPath>
</defs>
</svg>
