<svg width="18" height="17" viewBox="0 0 18 17" fill="none" xmlns="http://www.w3.org/2000/svg">
<path fill-rule="evenodd" clip-rule="evenodd" d="M0.900024 6.71987C0.900024 4.96944 1.59538 3.29071 2.83312 2.05297C4.07086 0.815228 5.7496 0.119873 7.50002 0.119873H10.138C11.6655 0.120138 13.1505 0.622757 14.3642 1.55026C15.5779 2.47777 16.4528 3.77869 16.8542 5.25251C17.2555 6.72633 17.1611 8.29124 16.5853 9.70607C16.0095 11.1209 14.9845 12.3071 13.668 13.0819L8.30402 16.2369L7.40002 16.7689V13.3199C5.66698 13.2936 4.01383 12.5867 2.79763 11.3518C1.58144 10.1169 0.899825 8.45311 0.900024 6.71987ZM7.50002 1.31987C6.06786 1.31987 4.69434 1.8888 3.68165 2.9015C2.66895 3.91419 2.10002 5.2877 2.10002 6.71987C2.10002 8.15204 2.66895 9.52555 3.68165 10.5382C4.69434 11.5509 6.06786 12.1199 7.50002 12.1199H8.60002V14.6709L13.06 12.0479C14.1504 11.4072 14.9997 10.4254 15.4768 9.25416C15.9539 8.08288 16.0323 6.78716 15.7 5.56689C15.3676 4.34663 14.6429 3.26965 13.6377 2.5021C12.6326 1.73456 11.4027 1.31912 10.138 1.31987H7.50002ZM6.00002 4.61987H12V5.81987H6.00002V4.61987ZM10.5 7.61987H6.00002V8.81987H10.5V7.61987Z" fill="#7140FD"/>
</svg>
