<svg width="100" height="25" viewBox="0 0 100 25" fill="none" xmlns="http://www.w3.org/2000/svg">
<g clip-path="url(#clip0_1_910)">
<path d="M21 6.5H19L17.73 5.23C17.271 4.77 16.65 4.508 16 4.5H13.5C13.212 3.346 12.189 2.528 11 2.5V8.86C11.051 9.87 11.451 10.831 12.13 11.58C13.249 12.655 14.712 13.3 16.26 13.4L19.71 12.02C20.529 11.691 21.162 11.018 21.44 10.18L22 8.65C22.015 8.547 22.015 8.443 22 8.34V7.5C22 6.948 21.552 6.5 21 6.5ZM16 8.5C15.448 8.5 15 8.052 15 7.5C15 6.948 15.448 6.5 16 6.5C16.552 6.5 17 6.948 17 7.5C17 8.052 16.552 8.5 16 8.5Z" fill="#512772"/>
<path d="M11.38 12.24C10.682 11.476 10.227 10.523 10.07 9.5H6C5.459 9.536 4.93 9.337 4.547 8.953C4.163 8.57 3.964 8.041 4 7.5C4 6.948 3.552 6.5 3 6.5C2.448 6.5 2 6.948 2 7.5C2.01 8.194 2.174 8.877 2.48 9.5C2.817 10.154 3.348 10.688 4 11.03V22.5H7V17.5H13V22.5H16V14.37C14.256 14.233 12.617 13.477 11.38 12.24ZM28.598 5.5H33.7C34.364 5.5 34.94 5.531 35.429 5.594C35.917 5.652 36.333 5.738 36.677 5.852C37.021 5.965 37.3 6.104 37.515 6.268C37.919 6.558 38.193 6.996 38.277 7.487C38.374 8.004 38.37 8.535 38.265 9.051C38.215 9.294 38.117 9.526 37.977 9.731C37.819 9.95 37.621 10.137 37.392 10.281C37.096 10.467 36.774 10.607 36.436 10.697C36.05 10.807 35.581 10.893 35.03 10.955C34.483 11.014 33.839 11.043 33.097 11.043V11.811L33.847 11.957V14.5H28.597V11.957L29.347 11.81V8.19L28.597 8.043L28.598 5.5ZM33.098 9.432C33.324 9.432 33.529 9.42 33.713 9.396C33.9 9.373 34.059 9.324 34.187 9.25C34.32 9.172 34.426 9.055 34.492 8.916C34.562 8.771 34.598 8.576 34.598 8.33C34.598 8.092 34.563 7.902 34.492 7.762C34.427 7.624 34.321 7.509 34.188 7.434C34.041 7.354 33.88 7.304 33.713 7.287C33.509 7.262 33.304 7.251 33.098 7.252V9.432ZM44.565 14.5L44.248 12.988H41.798L41.489 14.5H38.155V11.547L38.876 11.4L40.603 5.5H45.443L47.178 11.4L47.898 11.547V14.5H44.565ZM42.303 10.979H43.744L43.024 7.586L42.303 10.979ZM50.951 14.506L48.555 8.184L47.665 8.043V5.5H53.353V8.043L52.709 8.183L53.723 11.518L54.736 8.184L54.092 8.043V5.5H59.782V8.043L59.137 8.183L60.15 11.518L61.164 8.184L60.519 8.043V5.5H64.832V8.043L63.947 8.183L61.551 14.506H57.379L56.248 11.06L55.123 14.506H50.951ZM70.023 9.35L71.617 8.969V11.043L70.023 10.663V11.81L70.773 11.98V14.5H65.523V11.957L66.273 11.81V8.201L65.523 8.055V5.5H72.772V8.5H71.787C71.684 8.407 71.577 8.318 71.465 8.236C71.348 8.146 71.215 8.066 71.066 7.996C70.913 7.919 70.752 7.86 70.586 7.82C70.402 7.772 70.213 7.748 70.023 7.75V9.35ZM78.086 12.25C78.561 12.252 79.034 12.171 79.481 12.01C79.68 11.94 79.859 11.86 80.019 11.77C80.179 11.68 80.32 11.59 80.441 11.5H81.42V14.5H73.586V11.957L74.336 11.81V8.201L73.586 8.055V5.5H81.42V8.5H80.477C80.337 8.405 80.192 8.317 80.043 8.236C79.867 8.141 79.683 8.061 79.493 7.996C79.282 7.918 79.064 7.86 78.842 7.82C78.593 7.772 78.34 7.748 78.086 7.75V9.35L79.844 8.969V11.043L78.086 10.663V12.25ZM85.879 9.895C85.879 10.23 85.922 10.52 86.008 10.762C86.094 11.004 86.218 11.203 86.383 11.359C86.551 11.516 86.753 11.631 86.993 11.705C87.234 11.779 87.51 11.816 87.818 11.816C88.186 11.816 88.619 11.771 89.119 11.682C89.619 11.592 90.172 11.453 90.777 11.266V14.008C89.618 14.401 88.403 14.603 87.18 14.606C86.473 14.606 85.81 14.518 85.193 14.342C84.603 14.178 84.055 13.888 83.588 13.492C83.124 13.082 82.758 12.574 82.516 12.004C82.254 11.406 82.123 10.704 82.123 9.894C82.123 9.105 82.243 8.426 82.481 7.855C82.704 7.312 83.053 6.83 83.5 6.449C83.963 6.067 84.503 5.787 85.082 5.629C85.75 5.446 86.44 5.358 87.132 5.365C87.887 5.358 88.64 5.441 89.376 5.611C89.674 5.681 89.936 5.761 90.162 5.851C90.392 5.938 90.598 6.021 90.777 6.104V8.799H89.014C88.842 8.543 88.614 8.331 88.346 8.178C88.117 8.048 87.859 7.98 87.596 7.978C87.149 7.979 86.722 8.161 86.412 8.482C86.252 8.646 86.123 8.848 86.025 9.086C85.923 9.343 85.874 9.618 85.879 9.895ZM99.789 5.5V8.5H98.805C98.733 8.408 98.657 8.32 98.576 8.236C98.399 8.052 98.182 7.91 97.943 7.82C97.814 7.772 97.677 7.749 97.539 7.75V11.81L98.289 11.957V14.5H93.039V11.957L93.789 11.81V7.75C93.644 7.75 93.509 7.773 93.385 7.82C93.145 7.909 92.929 8.051 92.752 8.236C92.666 8.326 92.59 8.414 92.523 8.5H91.539V5.5H99.789ZM56.31 18.26H55.79V19.5H55.385V16.13H56.27C56.66 16.13 56.967 16.232 57.19 16.435C57.417 16.635 57.53 16.895 57.53 17.215C57.53 17.515 57.418 17.765 57.195 17.965C56.972 18.162 56.677 18.26 56.31 18.26ZM56.275 16.475H55.79V17.915H56.31C56.563 17.915 56.762 17.85 56.905 17.72C57.047 17.591 57.125 17.407 57.12 17.215C57.13 17.011 57.049 16.814 56.9 16.675C56.753 16.542 56.545 16.475 56.275 16.475ZM59.99 19.5H58.11V16.13H59.965V16.485H58.515V17.64H59.795V17.995H58.515V19.145H59.99V19.5ZM62.544 16.485H61.634V19.5H61.23V16.485H60.32V16.13H62.544V16.485ZM66.104 18.605C66.104 18.902 66.003 19.132 65.799 19.295C65.596 19.455 65.334 19.535 65.014 19.535C64.661 19.535 64.361 19.463 64.114 19.32V18.885C64.358 19.068 64.654 19.16 65.004 19.16C65.214 19.16 65.379 19.113 65.499 19.02C65.621 18.922 65.688 18.771 65.679 18.615C65.681 18.547 65.666 18.48 65.635 18.42C65.604 18.355 65.555 18.299 65.495 18.26C65.437 18.214 65.375 18.174 65.309 18.14C65.204 18.08 65.096 18.027 64.984 17.98C64.872 17.932 64.762 17.88 64.654 17.825C64.562 17.773 64.474 17.714 64.39 17.65C64.296 17.577 64.22 17.483 64.17 17.375C64.121 17.261 64.097 17.139 64.1 17.015C64.1 16.728 64.201 16.505 64.405 16.345C64.611 16.182 64.87 16.1 65.18 16.1C65.47 16.1 65.716 16.152 65.92 16.255V16.68C65.702 16.542 65.448 16.473 65.19 16.48C64.986 16.48 64.825 16.528 64.704 16.625C64.587 16.712 64.52 16.85 64.524 16.995C64.524 17.075 64.54 17.147 64.57 17.21C64.603 17.273 64.66 17.333 64.74 17.39C64.82 17.443 64.888 17.485 64.945 17.515C65.001 17.542 65.09 17.582 65.21 17.635C65.323 17.685 65.41 17.725 65.47 17.755C65.53 17.782 65.606 17.827 65.7 17.89C65.862 17.979 65.985 18.125 66.045 18.3C66.085 18.393 66.105 18.495 66.105 18.605H66.104ZM67.482 18.08L67.417 18.27H68.612L68.547 18.075L68.022 16.455C67.982 16.598 67.802 17.14 67.482 18.08ZM67.002 19.5H66.567L67.742 16.13H68.302L69.457 19.5H69.022L68.727 18.615H67.302L67.002 19.5ZM71.859 19.5H70.019V16.13H70.424V19.135H71.859V19.5ZM75.282 17.8C75.282 18.33 75.145 18.753 74.872 19.07C74.602 19.383 74.235 19.54 73.772 19.54C73.315 19.54 72.948 19.382 72.672 19.065C72.395 18.748 72.257 18.327 72.257 17.8C72.257 17.27 72.392 16.848 72.662 16.535C72.935 16.222 73.303 16.065 73.767 16.065C74.24 16.065 74.61 16.222 74.877 16.535C75.147 16.845 75.282 17.267 75.282 17.8ZM72.682 17.8C72.682 18.217 72.78 18.547 72.977 18.79C73.177 19.033 73.442 19.155 73.772 19.155C74.115 19.155 74.38 19.035 74.567 18.795C74.757 18.555 74.852 18.223 74.852 17.8C74.852 17.377 74.757 17.045 74.567 16.805C74.377 16.565 74.11 16.445 73.767 16.445C73.427 16.445 73.16 16.567 72.967 16.81C72.777 17.05 72.682 17.38 72.682 17.8ZM76.308 19.5H75.903V16.13H76.413L77.258 17.55L78.113 19.01C78.097 18.525 78.09 18.04 78.093 17.555V16.13H78.498V19.5H77.988L77.143 18.09C76.878 17.654 76.619 17.214 76.368 16.77L76.283 16.615C76.299 16.962 76.308 17.45 76.308 18.08V19.5ZM81.1 18.08L81.035 18.27H82.23L82.165 18.075L81.64 16.455C81.6 16.598 81.42 17.14 81.1 18.08ZM80.62 19.5H80.185L81.36 16.13H81.92L83.075 19.5H82.64L82.345 18.615H80.92L80.62 19.5ZM84.042 19.5H83.637V16.13H84.147L84.992 17.55L85.847 19.01C85.831 18.525 85.825 18.04 85.827 17.555V16.13H86.232V19.5H85.722L84.877 18.09C84.612 17.654 84.353 17.214 84.102 16.77L84.017 16.615C84.034 16.962 84.042 17.45 84.042 18.08V19.5ZM88.022 19.5H87.002V16.13H88.002C88.498 16.13 88.905 16.285 89.222 16.595C89.542 16.902 89.702 17.3 89.702 17.79C89.702 18.277 89.552 18.683 89.256 19.01C88.963 19.337 88.552 19.5 88.022 19.5ZM87.996 16.49H87.411V19.145H88.016C88.433 19.145 88.748 19.017 88.961 18.76C89.174 18.5 89.281 18.177 89.281 17.79C89.281 17.423 89.161 17.115 88.921 16.865C88.684 16.615 88.376 16.49 87.996 16.49ZM93.385 18.605C93.385 18.902 93.283 19.132 93.08 19.295C92.876 19.455 92.615 19.535 92.295 19.535C91.942 19.535 91.641 19.463 91.395 19.32V18.885C91.638 19.068 91.935 19.16 92.285 19.16C92.495 19.16 92.66 19.113 92.78 19.02C92.902 18.922 92.969 18.771 92.96 18.615C92.961 18.547 92.946 18.48 92.915 18.42C92.884 18.355 92.835 18.299 92.775 18.26C92.718 18.214 92.656 18.174 92.59 18.14C92.485 18.08 92.377 18.027 92.265 17.98C92.153 17.932 92.043 17.88 91.935 17.825C91.843 17.773 91.754 17.714 91.67 17.65C91.576 17.577 91.5 17.483 91.45 17.375C91.401 17.261 91.377 17.139 91.38 17.015C91.38 16.728 91.482 16.505 91.685 16.345C91.891 16.182 92.15 16.1 92.46 16.1C92.75 16.1 92.997 16.152 93.2 16.255V16.68C92.982 16.543 92.728 16.473 92.47 16.48C92.266 16.48 92.105 16.528 91.985 16.625C91.868 16.712 91.801 16.85 91.805 16.995C91.805 17.075 91.82 17.147 91.85 17.21C91.883 17.273 91.94 17.333 92.02 17.39C92.1 17.443 92.168 17.485 92.225 17.515C92.281 17.542 92.37 17.582 92.49 17.635C92.603 17.685 92.69 17.725 92.75 17.755C92.81 17.782 92.886 17.827 92.98 17.89C93.142 17.979 93.265 18.125 93.325 18.3C93.365 18.393 93.385 18.495 93.385 18.605ZM94.982 18.26H94.462V19.5H94.057V16.13H94.942C95.332 16.13 95.639 16.232 95.862 16.435C96.089 16.635 96.202 16.895 96.202 17.215C96.202 17.515 96.09 17.765 95.867 17.965C95.643 18.162 95.348 18.26 94.982 18.26ZM94.947 16.475H94.462V17.915H94.982C95.235 17.915 95.433 17.85 95.577 17.72C95.719 17.591 95.797 17.407 95.792 17.215C95.802 17.011 95.721 16.814 95.572 16.675C95.425 16.542 95.217 16.475 94.947 16.475ZM97.487 18.08L97.421 18.27H98.616L98.552 18.075L98.026 16.455C97.986 16.598 97.807 17.14 97.487 18.08ZM97.007 19.5H96.571L97.746 16.13H98.306L99.463 19.5H99.027L98.733 18.615H97.308L97.007 19.5Z" fill="#512772"/>
</g>
<defs>
<clipPath id="clip0_1_910">
<rect width="100" height="24" fill="white" transform="translate(0 0.5)"/>
</clipPath>
</defs>
</svg>
