<svg width="21" height="21" viewBox="0 0 21 21" fill="none" xmlns="http://www.w3.org/2000/svg">
<g clip-path="url(#clip0_1_37)">
<mask id="mask0_1_37" style="mask-type:luminance" maskUnits="userSpaceOnUse" x="0" y="0" width="21" height="21">
<path d="M0.880005 0.5H20.88V20.5H0.880005V0.5Z" fill="white"/>
</mask>
<g mask="url(#mask0_1_37)">
<path d="M8.526 6.282C8.173 6.636 4.284 17.596 4.284 17.596C4.284 17.596 15.244 13.707 15.597 13.354C15.951 13 15.951 10.879 13.477 8.404C11 5.929 8.88 5.929 8.526 6.282Z" stroke="white" stroke-width="1.2"/>
<path d="M8.526 6.28198C8.526 6.28198 8.173 8.75698 10.648 11.232C13.123 13.707 15.598 13.354 15.598 13.354" stroke="white" stroke-width="1.2"/>
<path fill-rule="evenodd" clip-rule="evenodd" d="M11.426 14.697L7.183 10.454L6.335 11.303L10.577 15.545L11.426 14.697ZM8.951 15.757L6.122 12.93L5.274 13.779L8.102 16.607L8.951 15.759V15.757Z" fill="white"/>
<path opacity="0.8" d="M15.242 11.812C15.7943 11.812 16.242 11.3642 16.242 10.812C16.242 10.2597 15.7943 9.81195 15.242 9.81195C14.6897 9.81195 14.242 10.2597 14.242 10.812C14.242 11.3642 14.6897 11.812 15.242 11.812Z" fill="white"/>
<path opacity="0.4" d="M9.66701 5.16498C10.4954 5.16498 11.167 4.49341 11.167 3.66498C11.167 2.83655 10.4954 2.16498 9.66701 2.16498C8.83858 2.16498 8.16701 2.83655 8.16701 3.66498C8.16701 4.49341 8.83858 5.16498 9.66701 5.16498Z" fill="white"/>
<path opacity="0.6" d="M17.425 5.66498C17.9773 5.66498 18.425 5.21726 18.425 4.66498C18.425 4.11269 17.9773 3.66498 17.425 3.66498C16.8727 3.66498 16.425 4.11269 16.425 4.66498C16.425 5.21726 16.8727 5.66498 17.425 5.66498Z" fill="white"/>
<path opacity="0.8" d="M12.631 9.03101C13.4594 9.03101 14.131 8.35943 14.131 7.53101C14.131 6.70258 13.4594 6.03101 12.631 6.03101C11.8026 6.03101 11.131 6.70258 11.131 7.53101C11.131 8.35943 11.8026 9.03101 12.631 9.03101Z" fill="white"/>
<path opacity="0.4" d="M13.35 4.94598C13.9023 4.94598 14.35 4.49827 14.35 3.94598C14.35 3.3937 13.9023 2.94598 13.35 2.94598C12.7977 2.94598 12.35 3.3937 12.35 3.94598C12.35 4.49827 12.7977 4.94598 13.35 4.94598Z" fill="white"/>
<path opacity="0.6" d="M17.595 9.89697C18.4234 9.89697 19.095 9.2254 19.095 8.39697C19.095 7.56855 18.4234 6.89697 17.595 6.89697C16.7666 6.89697 16.095 7.56855 16.095 8.39697C16.095 9.2254 16.7666 9.89697 17.595 9.89697Z" fill="white"/>
</g>
</g>
<defs>
<clipPath id="clip0_1_37">
<rect width="20" height="20" fill="white" transform="translate(0.880005 0.5)"/>
</clipPath>
</defs>
</svg>
