<svg width="148" height="37" viewBox="0 0 148 37" fill="none" xmlns="http://www.w3.org/2000/svg">
<path d="M31.08 9.12988H28.12L26.24 7.22488C25.561 6.53488 24.642 6.14188 23.68 6.12988H19.98C19.554 4.39988 18.039 3.17088 16.28 3.12988V12.6699C16.356 14.1849 16.947 15.6259 17.952 16.7499C19.608 18.3629 21.773 19.3299 24.065 19.4799L29.171 17.4099C30.383 16.9169 31.32 15.9069 31.731 14.6499L32.56 12.3549C32.582 12.2009 32.582 12.0439 32.56 11.8899V10.6299C32.56 9.80188 31.897 9.12988 31.08 9.12988ZM23.68 12.1299C22.863 12.1299 22.2 11.4579 22.2 10.6299C22.2 9.80188 22.863 9.12988 23.68 9.12988C24.497 9.12988 25.16 9.80188 25.16 10.6299C25.16 11.4579 24.497 12.1299 23.68 12.1299Z" fill="#FFF1E8"/>
<path d="M16.842 17.7395C15.81 16.5935 15.135 15.1635 14.904 13.6295H8.88002C8.08002 13.6835 7.29602 13.3845 6.72902 12.8095C6.16202 12.2355 5.86702 11.4405 5.92002 10.6295C5.92002 9.8015 5.25702 9.1295 4.44002 9.1295C3.62302 9.1295 2.96002 9.8015 2.96002 10.6295C2.97502 11.6705 3.21802 12.6955 3.67002 13.6295C4.17002 14.6105 4.95502 15.4125 5.92002 15.9245V33.1295H10.36V25.6295H19.24V33.1295H23.68V20.9345C21.098 20.7285 18.674 19.5955 16.842 17.7395ZM42.325 7.6295H49.876C50.859 7.6295 51.711 7.6765 52.435 7.7705C53.157 7.8575 53.773 7.9865 54.282 8.1575C54.791 8.3275 55.204 8.5355 55.522 8.7815C56.121 9.2165 56.526 9.8735 56.65 10.6105C56.794 11.3855 56.788 12.1825 56.632 12.9565C56.558 13.3215 56.413 13.6675 56.206 13.9765C55.972 14.3045 55.678 14.5845 55.34 14.8015C54.902 15.0805 54.425 15.2905 53.925 15.4255C53.354 15.5905 52.66 15.7195 51.844 15.8125C51.035 15.9005 50.082 15.9445 48.984 15.9445V17.0965L50.094 17.3155V21.1295H42.324V17.3155L43.434 17.0945V11.6645L42.324 11.4445L42.325 7.6295ZM48.985 13.5275C49.32 13.5275 49.623 13.5095 49.895 13.4735C50.172 13.4395 50.407 13.3655 50.597 13.2545C50.794 13.1375 50.951 12.9625 51.048 12.7535C51.152 12.5365 51.205 12.2435 51.205 11.8745C51.205 11.5175 51.153 11.2325 51.048 11.0225C50.953 10.8145 50.795 10.6425 50.598 10.5305C50.381 10.4105 50.142 10.3355 49.895 10.3105C49.593 10.2735 49.289 10.2555 48.985 10.2575V13.5275ZM65.956 21.1295L65.487 18.8615H61.861L61.404 21.1295H56.469V16.7005L57.536 16.4795L60.092 7.6295H67.256L69.823 16.4795L70.889 16.7005V21.1295H65.956ZM62.608 15.8485H64.741L63.676 10.7585L62.608 15.8485ZM75.407 21.1385L71.861 11.6555L70.544 11.4445V7.6295H78.962V11.4445L78.009 11.6545L79.51 16.6565L81.009 11.6555L80.056 11.4445V7.6295H88.477V11.4445L87.523 11.6545L89.022 16.6565L90.523 11.6555L89.568 11.4445V7.6295H95.951V11.4445L94.642 11.6545L91.095 21.1385H84.921L83.247 15.9695L81.582 21.1385H75.407ZM103.634 13.4045L105.993 12.8335V15.9445L103.634 15.3745V17.0945L104.744 17.3495V21.1295H96.974V17.3155L98.084 17.0945V11.6815L96.974 11.4625V7.6295H107.703V12.1295H106.245C106.093 11.9895 105.934 11.8575 105.768 11.7335C105.595 11.5985 105.398 11.4785 105.178 11.3735C104.952 11.2575 104.713 11.1685 104.467 11.1095C104.195 11.0375 103.915 11.0015 103.634 11.0045V13.4045ZM115.567 17.7545C116.271 17.7575 116.97 17.6365 117.632 17.3945C117.926 17.2895 118.191 17.1695 118.428 17.0345C118.665 16.8995 118.874 16.7645 119.053 16.6295H120.502V21.1295H108.907V17.3155L110.017 17.0945V11.6815L108.907 11.4625V7.6295H120.502V12.1295H119.106C118.899 11.9865 118.684 11.8545 118.464 11.7335C118.203 11.5905 117.93 11.4705 117.65 11.3735C117.337 11.2575 117.014 11.1685 116.686 11.1095C116.318 11.0375 115.943 11.0025 115.567 11.0045V13.4045L118.169 12.8335V15.9445L115.567 15.3745V17.7545ZM127.101 14.2225C127.101 14.7245 127.165 15.1595 127.292 15.5225C127.419 15.8855 127.603 16.1845 127.847 16.4185C128.095 16.6535 128.394 16.8265 128.75 16.9375C129.106 17.0485 129.515 17.1035 129.971 17.1035C130.515 17.1035 131.156 17.0365 131.896 16.9025C132.636 16.7675 133.455 16.5595 134.35 16.2785V20.3915C132.635 20.9815 130.837 21.2845 129.026 21.2885C127.98 21.2885 126.999 21.1565 126.086 20.8925C125.212 20.6465 124.402 20.2115 123.71 19.6175C123.023 19.0025 122.481 18.2405 122.124 17.3855C121.736 16.4885 121.542 15.4355 121.542 14.2205C121.542 13.0375 121.72 12.0185 122.072 11.1625C122.401 10.3475 122.918 9.6235 123.58 9.0535C124.266 8.4795 125.064 8.0605 125.921 7.8235C126.91 7.5495 127.931 7.4155 128.955 7.4275C130.073 7.4175 131.188 7.5405 132.276 7.7965C132.718 7.9015 133.105 8.0215 133.44 8.1565C133.78 8.2865 134.085 8.4115 134.35 8.5355V12.5785H131.741C131.487 12.1945 131.148 11.8755 130.752 11.6465C130.413 11.4525 130.031 11.3485 129.642 11.3465C128.981 11.3485 128.349 11.6205 127.89 12.1025C127.653 12.3485 127.462 12.6515 127.317 13.0085C127.166 13.3945 127.093 13.8065 127.101 14.2225ZM147.688 7.6295V12.1295H146.231C146.125 11.9915 146.012 11.8595 145.892 11.7335C145.63 11.4575 145.31 11.2435 144.956 11.1095C144.764 11.0385 144.562 11.0025 144.358 11.0045V17.0945L145.468 17.3155V21.1295H137.698V17.3155L138.808 17.0945V11.0045C138.593 11.0045 138.393 11.0395 138.21 11.1095C137.855 11.2435 137.535 11.4565 137.273 11.7335C137.146 11.8685 137.033 12.0005 136.934 12.1295H135.478V7.6295H147.688ZM83.339 26.7695H82.569V28.6295H81.97V23.5745H83.28C83.857 23.5745 84.311 23.7275 84.641 24.0325C84.977 24.3325 85.144 24.7225 85.144 25.2025C85.144 25.6525 84.979 26.0275 84.649 26.3275C84.319 26.6225 83.882 26.7695 83.339 26.7695ZM83.287 24.0915H82.569V26.2515H83.339C83.713 26.2515 84.008 26.1545 84.219 25.9595C84.429 25.7655 84.545 25.4895 84.538 25.2015C84.552 24.8965 84.433 24.6005 84.212 24.3915C83.994 24.1925 83.687 24.0915 83.287 24.0915ZM88.785 28.6295H86.003V23.5745H88.748V24.1075H86.602V25.8395H88.497V26.3725H86.602V28.0975H88.785V28.6295ZM92.565 24.1075H91.218V28.6295H90.62V24.1075H89.274V23.5745H92.565V24.1075ZM97.834 27.2865C97.834 27.7325 97.684 28.0775 97.383 28.3215C97.082 28.5615 96.694 28.6815 96.221 28.6815C95.698 28.6815 95.254 28.5735 94.889 28.3595V27.7065C95.25 27.9815 95.688 28.1195 96.206 28.1195C96.517 28.1195 96.761 28.0485 96.939 27.9095C97.119 27.7625 97.219 27.5365 97.205 27.3015C97.207 27.2005 97.185 27.1005 97.14 27.0095C97.094 26.9115 97.022 26.8285 96.933 26.7695C96.847 26.7005 96.755 26.6395 96.657 26.5895C96.502 26.4995 96.341 26.4195 96.176 26.3495C96.011 26.2775 95.848 26.1995 95.688 26.1165C95.552 26.0385 95.422 25.9505 95.297 25.8545C95.158 25.7455 95.046 25.6035 94.972 25.4415C94.9 25.2715 94.864 25.0875 94.868 24.9015C94.868 24.4715 95.017 24.1365 95.319 23.8965C95.624 23.6525 96.008 23.5295 96.466 23.5295C96.896 23.5295 97.26 23.6075 97.562 23.7615V24.3995C97.239 24.1935 96.863 24.0885 96.481 24.0995C96.179 24.0995 95.941 24.1715 95.762 24.3165C95.589 24.4465 95.49 24.6545 95.496 24.8715C95.496 24.9915 95.519 25.0995 95.564 25.1945C95.612 25.2885 95.697 25.3785 95.815 25.4645C95.934 25.5435 96.034 25.6065 96.119 25.6515C96.201 25.6925 96.333 25.7525 96.511 25.8315C96.678 25.9065 96.807 25.9665 96.896 26.0115C96.984 26.0525 97.097 26.1195 97.236 26.2145C97.476 26.3475 97.658 26.5675 97.747 26.8295C97.806 26.9685 97.834 27.1215 97.834 27.2865ZM99.873 26.4995L99.777 26.7845H101.546L101.45 26.4925L100.673 24.0625C100.613 24.2765 100.347 25.0895 99.873 26.4995ZM99.163 28.6295H98.519L100.258 23.5745H101.087L102.796 28.6295H102.153L101.716 27.3025H99.607L99.163 28.6295ZM106.351 28.6295H103.628V23.5745H104.228V28.0825H106.351V28.6295ZM111.417 26.0795C111.417 26.8745 111.215 27.5095 110.811 27.9845C110.411 28.4545 109.868 28.6895 109.183 28.6895C108.506 28.6895 107.963 28.4525 107.555 27.9775C107.145 27.5015 106.94 26.8705 106.94 26.0795C106.94 25.2845 107.14 24.6515 107.54 24.1825C107.944 23.7125 108.488 23.4775 109.175 23.4775C109.875 23.4775 110.423 23.7125 110.818 24.1825C111.218 24.6475 111.417 25.2805 111.417 26.0795ZM107.569 26.0795C107.569 26.7055 107.714 27.2005 108.006 27.5645C108.302 27.9295 108.694 28.1125 109.183 28.1125C109.69 28.1125 110.082 27.9325 110.359 27.5725C110.64 27.2125 110.781 26.7145 110.781 26.0795C110.781 25.4455 110.64 24.9475 110.359 24.5875C110.078 24.2275 109.683 24.0475 109.175 24.0475C108.672 24.0475 108.277 24.2305 107.991 24.5945C107.71 24.9545 107.569 25.4495 107.569 26.0795ZM112.936 28.6295H112.336V23.5745H113.091L114.342 25.7045L115.607 27.8945C115.583 27.1675 115.573 26.4395 115.578 25.7125V23.5745H116.177V28.6295H115.422L114.172 26.5145C113.779 25.8605 113.397 25.2005 113.025 24.5345L112.899 24.3025C112.923 24.8225 112.936 25.5545 112.936 26.4995V28.6295ZM120.028 26.4995L119.932 26.7845H121.7L121.604 26.4925L120.827 24.0625C120.768 24.2765 120.502 25.0895 120.028 26.4995ZM119.318 28.6295H118.674L120.413 23.5745H121.242L122.951 28.6295H122.307L121.871 27.3025H119.762L119.318 28.6295ZM124.382 28.6295H123.783V23.5745H124.538L125.788 25.7045L127.054 27.8945C127.03 27.1675 127.021 26.4395 127.024 25.7125V23.5745H127.623V28.6295H126.869L125.618 26.5145C125.225 25.8605 124.843 25.2005 124.471 24.5345L124.345 24.3025C124.37 24.8225 124.382 25.5545 124.382 26.4995V28.6295ZM130.273 28.6295H128.763V23.5745H130.243C130.977 23.5745 131.579 23.8075 132.049 24.2725C132.522 24.7325 132.759 25.3295 132.759 26.0645C132.759 26.7955 132.537 27.4045 132.099 27.8945C131.665 28.3855 131.055 28.6295 130.271 28.6295H130.273ZM130.234 24.1145H129.368V28.0965H130.264C130.881 28.0965 131.347 27.9045 131.662 27.5195C131.978 27.1295 132.136 26.6445 132.136 26.0645C132.136 25.5135 131.958 25.0515 131.603 24.6765C131.252 24.3015 130.796 24.1145 130.234 24.1145ZM138.21 27.2865C138.21 27.7325 138.059 28.0775 137.758 28.3215C137.456 28.5615 137.07 28.6815 136.597 28.6815C136.074 28.6815 135.629 28.5735 135.265 28.3595V27.7065C135.624 27.9815 136.064 28.1195 136.582 28.1195C136.893 28.1195 137.137 28.0485 137.314 27.9095C137.495 27.7625 137.595 27.5365 137.581 27.3015C137.583 27.2005 137.56 27.0995 137.514 27.0095C137.468 26.9115 137.396 26.8285 137.307 26.7695C137.222 26.7005 137.13 26.6395 137.033 26.5895C136.878 26.4995 136.717 26.4195 136.552 26.3495C136.387 26.2775 136.224 26.1995 136.064 26.1165C135.927 26.0385 135.796 25.9505 135.672 25.8545C135.532 25.7455 135.42 25.6035 135.346 25.4415C135.274 25.2715 135.239 25.0875 135.242 24.9015C135.242 24.4715 135.393 24.1365 135.694 23.8965C135.999 23.6525 136.382 23.5295 136.841 23.5295C137.27 23.5295 137.636 23.6075 137.936 23.7615V24.3995C137.613 24.1935 137.237 24.0885 136.856 24.0995C136.554 24.0995 136.315 24.1715 136.138 24.3165C135.965 24.4465 135.866 24.6545 135.871 24.8715C135.871 24.9915 135.894 25.0995 135.938 25.1945C135.987 25.2885 136.071 25.3785 136.19 25.4645C136.308 25.5435 136.409 25.6065 136.493 25.6515C136.576 25.6925 136.708 25.7525 136.885 25.8315C137.052 25.9065 137.181 25.9665 137.27 26.0115C137.359 26.0525 137.471 26.1195 137.61 26.2145C137.85 26.3485 138.032 26.5675 138.121 26.8295C138.18 26.9685 138.21 27.1215 138.21 27.2865ZM140.573 26.7695H139.804V28.6295H139.204V23.5745H140.514C141.091 23.5745 141.546 23.7275 141.876 24.0325C142.212 24.3325 142.379 24.7225 142.379 25.2025C142.379 25.6525 142.213 26.0275 141.883 26.3275C141.552 26.6225 141.115 26.7695 140.573 26.7695ZM140.522 24.0915H139.804V26.2515H140.573C140.948 26.2515 141.241 26.1545 141.454 25.9595C141.663 25.7655 141.78 25.4895 141.772 25.2015C141.786 24.8965 141.667 24.6005 141.447 24.3915C141.229 24.1925 140.921 24.0915 140.522 24.0915ZM144.281 26.4995L144.183 26.7845H145.952L145.857 26.4925L145.078 24.0625C145.019 24.2765 144.753 25.0895 144.279 26.4995H144.281ZM143.57 28.6295H142.925L144.664 23.5745H145.493L147.205 28.6295H146.56L146.125 27.3025H144.016L143.572 28.6295H143.57Z" fill="#FFF1E8"/>
</svg>
