<svg width="24" height="28" viewBox="0 0 24 28" fill="none" xmlns="http://www.w3.org/2000/svg">
<path opacity="0.2" d="M20.9944 18.4495C20.8487 19.538 20.3127 20.5365 19.486 21.2594C18.6593 21.9823 17.5982 22.3803 16.5 22.3795C13.1185 22.3795 9.87548 21.0362 7.48439 18.6451C5.0933 16.254 3.75 13.011 3.75 9.6295C3.74916 8.53131 4.1472 7.4702 4.87009 6.6435C5.59298 5.81679 6.59152 5.28077 7.68 5.13512C7.84091 5.11601 8.00368 5.14952 8.14395 5.23064C8.28422 5.31176 8.39444 5.43612 8.45813 5.58512L10.4391 10.0101C10.4877 10.1238 10.5076 10.2477 10.4968 10.3709C10.486 10.494 10.4449 10.6126 10.3772 10.7161L8.37375 13.0982C8.30268 13.2055 8.26066 13.3293 8.25179 13.4577C8.24291 13.586 8.26749 13.7144 8.32313 13.8304C9.09844 15.4176 10.7391 17.0386 12.3309 17.8064C12.4475 17.8618 12.5766 17.8858 12.7053 17.8761C12.834 17.8664 12.958 17.8233 13.065 17.7511L15.4088 15.7542C15.5126 15.6851 15.6321 15.643 15.7563 15.6317C15.8806 15.6204 16.0057 15.6402 16.1203 15.6895L20.5416 17.6704C20.6913 17.7337 20.8163 17.8439 20.898 17.9844C20.9797 18.1249 21.0135 18.2881 20.9944 18.4495Z" fill="#FFC65C"/>
<path d="M20.8472 16.9853L16.4306 15.0063L16.4184 15.0006C16.1892 14.9026 15.939 14.8632 15.6907 14.8861C15.4424 14.909 15.2037 14.9935 14.9963 15.1319C14.9718 15.148 14.9484 15.1655 14.9259 15.1844L12.6441 17.1297C11.1984 16.4275 9.70595 14.9463 9.00376 13.5194L10.9519 11.2028C10.9706 11.1794 10.9884 11.1559 11.0053 11.1306C11.1407 10.9237 11.2229 10.6866 11.2445 10.4402C11.2661 10.1939 11.2264 9.94606 11.1291 9.71876V9.70751L9.14438 5.28344C9.0157 4.9865 8.79444 4.73914 8.51362 4.57829C8.2328 4.41744 7.9075 4.35172 7.58626 4.39094C6.31592 4.55811 5.14986 5.18198 4.30588 6.14603C3.4619 7.11009 2.99771 8.3484 3.00001 9.62969C3.00001 17.0734 9.05626 23.1297 16.5 23.1297C17.7813 23.132 19.0196 22.6678 19.9837 21.8238C20.9477 20.9798 21.5716 19.8138 21.7388 18.5434C21.7781 18.2223 21.7125 17.8971 21.5518 17.6163C21.3911 17.3355 21.144 17.1142 20.8472 16.9853ZM16.5 21.6297C13.3185 21.6262 10.2682 20.3608 8.01856 18.1111C5.76888 15.8615 4.50348 12.8112 4.50001 9.62969C4.49648 8.71421 4.82631 7.82875 5.42789 7.13867C6.02947 6.44858 6.86167 6.00107 7.76907 5.87969C7.7687 5.88343 7.7687 5.8872 7.76907 5.89094L9.73782 10.2972L7.80001 12.6166C7.78034 12.6392 7.76247 12.6633 7.74657 12.6888C7.60549 12.9052 7.52273 13.1545 7.5063 13.4124C7.48988 13.6703 7.54035 13.928 7.65282 14.1606C8.5022 15.8978 10.2525 17.635 12.0084 18.4834C12.2428 18.5949 12.502 18.6436 12.7608 18.6249C13.0196 18.6061 13.2692 18.5206 13.485 18.3766C13.5091 18.3604 13.5322 18.3428 13.5544 18.3241L15.8334 16.3797L20.2397 18.3531C20.2397 18.3531 20.2472 18.3531 20.25 18.3531C20.1301 19.2618 19.6833 20.0957 18.9931 20.6988C18.3028 21.3018 17.4166 21.6328 16.5 21.6297Z" fill="#FFC65C"/>
</svg>
