<svg width="23" height="23" viewBox="0 0 23 23" fill="none" xmlns="http://www.w3.org/2000/svg">
<path d="M20.955 9.5813C20.955 10.0572 20.8139 10.5224 20.5495 10.9181C20.2851 11.3138 19.9093 11.6223 19.4696 11.8044C19.0299 11.9865 18.5461 12.0342 18.0793 11.9413C17.6126 11.8485 17.1838 11.6193 16.8473 11.2828C16.5108 10.9463 16.2816 10.5175 16.1888 10.0507C16.0959 9.58397 16.1436 9.10015 16.3257 8.66047C16.5078 8.22078 16.8162 7.84498 17.2119 7.58058C17.6076 7.31617 18.0729 7.17505 18.5488 7.17505C19.1869 7.17505 19.799 7.42856 20.2502 7.87982C20.7015 8.33108 20.955 8.94312 20.955 9.5813ZM6.51752 9.5813C6.51752 9.10539 6.37639 8.64016 6.11199 8.24446C5.84759 7.84875 5.47178 7.54034 5.0321 7.35821C4.59242 7.17609 4.1086 7.12844 3.64183 7.22128C3.17507 7.31413 2.74631 7.5433 2.40979 7.87982C2.07327 8.21634 1.8441 8.6451 1.75125 9.11186C1.65841 9.57863 1.70606 10.0624 1.88818 10.5021C2.07031 10.9418 2.37872 11.3176 2.77443 11.582C3.17013 11.8464 3.63536 11.9875 4.11127 11.9875C4.74945 11.9875 5.36148 11.734 5.81274 11.2828C6.264 10.8315 6.51752 10.2195 6.51752 9.5813ZM8.23627 7.86255C8.71218 7.86255 9.1774 7.72143 9.57311 7.45702C9.96881 7.19262 10.2772 6.81682 10.4594 6.37713C10.6415 5.93745 10.6891 5.45363 10.5963 4.98686C10.5034 4.5201 10.2743 4.09134 9.93774 3.75482C9.60122 3.4183 9.17247 3.18913 8.7057 3.09629C8.23894 3.00344 7.75512 3.05109 7.31544 3.23321C6.87575 3.41534 6.49995 3.72375 6.23554 4.11946C5.97114 4.51516 5.83002 4.98039 5.83002 5.4563C5.83002 6.09448 6.08353 6.70652 6.53479 7.15777C6.98605 7.60903 7.59809 7.86255 8.23627 7.86255ZM14.4238 7.86255C14.8997 7.86255 15.3649 7.72143 15.7606 7.45702C16.1563 7.19262 16.4647 6.81682 16.6469 6.37713C16.829 5.93745 16.8766 5.45363 16.7838 4.98686C16.6909 4.5201 16.4618 4.09134 16.1252 3.75482C15.7887 3.4183 15.36 3.18913 14.8932 3.09629C14.4264 3.00344 13.9426 3.05109 13.5029 3.23321C13.0633 3.41534 12.6874 3.72375 12.423 4.11946C12.1586 4.51516 12.0175 4.98039 12.0175 5.4563C12.0175 6.09448 12.271 6.70652 12.7223 7.15777C13.1736 7.60903 13.7856 7.86255 14.4238 7.86255ZM16.4106 13.0927C16.0614 12.9001 15.7536 12.6404 15.5049 12.3287C15.2561 12.017 15.0712 11.6592 14.9609 11.276C14.7323 10.4899 14.2547 9.79918 13.6 9.30771C12.9453 8.81624 12.1487 8.55054 11.33 8.55054C10.5113 8.55054 9.71478 8.81624 9.06004 9.30771C8.4053 9.79918 7.92775 10.4899 7.69916 11.276C7.47835 12.0472 6.96068 12.6993 6.25971 13.0893C5.58726 13.4531 5.05532 14.0308 4.748 14.7309C4.44069 15.431 4.37555 16.2135 4.56289 16.9548C4.75023 17.6961 5.17935 18.3537 5.78238 18.8238C6.38542 19.2938 7.12794 19.5494 7.89252 19.55C8.3507 19.5514 8.80441 19.4599 9.22627 19.2811C10.5712 18.7264 12.0811 18.7264 13.426 19.2811C14.2407 19.6354 15.1609 19.6605 15.9937 19.3513C16.8265 19.042 17.5072 18.4224 17.8931 17.6222C18.2791 16.8221 18.3403 15.9036 18.0639 15.0593C17.7875 14.2151 17.195 13.5106 16.4106 13.0936V13.0927Z" fill="#512772"/>
</svg>
