<svg width="20" height="21" viewBox="0 0 20 21" fill="none" xmlns="http://www.w3.org/2000/svg">
<path fill-rule="evenodd" clip-rule="evenodd" d="M1.89999 10.9198C1.8993 11.0865 1.8993 11.2532 1.89999 11.4198H1.90199C1.90199 11.5198 1.90399 11.6178 1.90599 11.7148C1.9021 11.7831 1.9001 11.8514 1.89999 11.9198H1.90999C1.93299 13.1048 2.00599 14.1078 2.16899 14.9478C2.37699 16.0218 2.74099 16.8848 3.38899 17.5318C4.03499 18.1788 4.89799 18.5428 5.97199 18.7518C7.03899 18.9578 8.36899 19.0198 9.99999 19.0198C11.63 19.0198 12.96 18.9578 14.028 18.7508C15.102 18.5428 15.965 18.1788 16.612 17.5308C17.258 16.8848 17.623 16.0208 17.832 14.9478C17.994 14.1078 18.067 13.1048 18.091 11.9198H18.1C18.1 11.8508 18.098 11.7828 18.094 11.7138L18.098 11.4198H18.1V10.9198C18.1 9.28882 18.038 7.95982 17.831 6.89182C17.623 5.81782 17.258 4.95482 16.611 4.30782C15.965 3.66182 15.101 3.29682 14.028 3.08782C12.961 2.88282 11.631 2.81982 9.99999 2.81982C8.36899 2.81982 7.03999 2.88182 5.97199 3.08882C4.89799 3.29682 4.03499 3.66182 3.38799 4.30882C2.74099 4.95482 2.37699 5.81882 2.16799 6.89182C1.96299 7.95882 1.89999 9.28882 1.89999 10.9198ZM16.78 9.61082C16.634 8.77382 16.342 8.26382 15.841 7.91082C15.418 7.61082 14.787 7.38082 13.821 7.23082C12.86 7.08382 11.616 7.01982 9.99999 7.01982C8.38499 7.01982 7.13999 7.08282 6.17799 7.23182C5.21299 7.38182 4.58199 7.61182 4.15799 7.90982C3.65799 8.26382 3.36599 8.77382 3.21999 9.61082L3.27799 9.57882C4.22999 9.06682 5.73499 8.81982 7.99999 8.81982H8.59999V9.41982C8.59999 9.82982 8.70399 10.1768 8.89799 10.4098C9.07699 10.6248 9.39399 10.8198 9.99999 10.8198C10.606 10.8198 10.923 10.6248 11.101 10.4098C11.296 10.1768 11.4 9.82982 11.4 9.41982V8.81982H12C14.265 8.81982 15.77 9.06682 16.722 9.57982L16.78 9.61082ZM3.10599 11.7428C3.12599 12.9658 3.19599 13.9388 3.34599 14.7198C3.52899 15.6618 3.82099 16.2668 4.23599 16.6828C4.65299 17.0988 5.25799 17.3908 6.19999 17.5728C7.14799 17.7568 8.37999 17.8198 9.99999 17.8198C11.619 17.8198 12.852 17.7568 13.8 17.5728C14.742 17.3908 15.347 17.0988 15.763 16.6828C16.179 16.2668 16.471 15.6618 16.653 14.7198C16.804 13.9398 16.873 12.9648 16.893 11.7418C16.8841 11.5464 16.8337 11.3552 16.745 11.1808C16.645 10.9948 16.472 10.8078 16.153 10.6358C15.537 10.3038 14.441 10.0638 12.546 10.0258C12.47 10.4308 12.31 10.8358 12.023 11.1788C11.577 11.7148 10.894 12.0198 9.99999 12.0198C9.10599 12.0198 8.42299 11.7148 7.97699 11.1798C7.70607 10.8463 7.52592 10.4484 7.45399 10.0248C5.55899 10.0638 4.46299 10.3048 3.84699 10.6348C3.52699 10.8078 3.35499 10.9948 3.25499 11.1808C3.16586 11.3554 3.11506 11.547 3.10599 11.7428ZM15.763 5.15682C16.161 5.55482 16.445 6.12682 16.629 6.99982C16.5974 6.97597 16.5654 6.95263 16.533 6.92982C15.894 6.47882 15.056 6.20882 14.006 6.04582C12.952 5.88182 11.634 5.81982 9.99999 5.81982C8.36499 5.81982 7.04699 5.88182 5.99399 6.04582C4.94399 6.20882 4.10499 6.47882 3.46599 6.92982C3.43393 6.95262 3.40226 6.97595 3.37099 6.99982C3.55499 6.12582 3.83899 5.55482 4.23699 5.15682C4.65199 4.74082 5.25799 4.44882 6.19999 4.26682C7.14799 4.08282 8.37999 4.01982 9.99999 4.01982C11.619 4.01982 12.852 4.08282 13.8 4.26682C14.742 4.44882 15.347 4.74082 15.763 5.15682Z" fill="#F6B03C"/>
</svg>
