<svg width="91" height="92" viewBox="0 0 91 92" fill="none" xmlns="http://www.w3.org/2000/svg">
<g clip-path="url(#clip0_1_271)">
<g opacity="0.04" clip-path="url(#clip1_1_271)">
<path d="M88.6806 7.24325C90.1822 9.64641 90.9375 12.4409 90.8509 15.2734C90.7642 18.1059 89.8396 20.8492 88.1939 23.1563C86.5482 25.4634 84.2553 27.2307 81.6052 28.2348C78.9551 29.2389 76.0668 29.4346 73.3055 28.7972C70.5443 28.1598 68.0341 26.7179 66.0924 24.6539C64.1508 22.5899 62.8648 19.9964 62.3971 17.2015C61.9295 14.4066 62.3012 11.5357 63.4652 8.95188C64.6292 6.36809 66.5333 4.18743 68.9366 2.68566C72.1593 0.671865 76.05 0.0206937 79.7527 0.875407C83.4555 1.73012 86.6669 4.0207 88.6806 7.24325ZM15.772 52.8015C14.2704 50.3984 12.0898 48.4945 9.50596 47.3306C6.92216 46.1668 4.05121 45.7953 1.25617 46.2631C-1.53888 46.7309 -4.13248 48.017 -6.19666 49.9587C-8.26085 51.9005 -9.7029 54.4107 -10.3405 57.1719C-10.978 59.9331 -10.7825 62.8213 -9.77854 65.4712C-8.7746 68.1212 -7.00735 70.4139 -4.70028 72.0595C-2.39321 73.705 0.350062 74.6295 3.18263 74.7159C6.01521 74.8024 8.80985 74.047 11.2132 72.5452C14.4359 70.5314 16.7268 67.3199 17.5817 63.6173C18.4367 59.9146 17.7857 56.0241 15.772 52.8015ZM19.0284 38.6989C21.4317 37.1971 23.3358 35.0165 24.4998 32.4327C25.6638 29.8489 26.0355 26.978 25.5678 24.183C25.1002 21.3881 23.8142 18.7947 21.8725 16.7306C19.9308 14.6666 17.4207 13.2248 14.6594 12.5874C11.8982 11.95 9.00989 12.1457 6.35978 13.1498C3.70968 14.1538 1.41679 15.9212 -0.228927 18.2283C-1.87465 20.5354 -2.79929 23.2786 -2.88591 26.1111C-2.97254 28.9436 -2.21726 31.7381 -0.715596 34.1413C1.29807 37.3639 4.5095 39.6544 8.21222 40.5091C11.9149 41.3639 15.8056 40.7127 19.0284 38.6989ZM50.2749 19.1739C52.6782 17.6722 54.5823 15.4915 55.7463 12.9077C56.9103 10.3239 57.282 7.45301 56.8143 4.65808C56.3467 1.86314 55.0607 -0.730315 53.119 -2.79433C51.1773 -4.85834 48.6672 -6.30021 45.9059 -6.9376C43.1447 -7.57499 40.2564 -7.37927 37.6063 -6.3752C34.9562 -5.37113 32.6633 -3.6038 31.0176 -1.2967C29.3719 1.0104 28.4472 3.75365 28.3606 6.58615C28.274 9.41864 29.0292 12.2132 30.5309 14.6163C32.5446 17.8389 35.756 20.1295 39.4587 20.9842C43.1614 21.8389 47.0521 21.1877 50.2749 19.1739ZM76.8114 39.3145C74.4401 39.4436 72.0665 39.1039 69.8266 38.3148C67.5867 37.5256 65.5245 36.3026 63.7578 34.7156C60.123 31.4673 55.532 29.4865 50.6749 29.0709C45.8177 28.6552 40.9567 29.8271 36.8225 32.4105C32.6882 34.9938 29.504 38.8491 27.7483 43.3969C25.9927 47.9447 25.7605 52.9394 27.0866 57.6303C28.4048 62.2212 27.8482 67.1476 25.539 71.3289C23.2913 75.2882 22.4277 79.8838 23.0848 84.3887C23.742 88.8937 25.8823 93.0509 29.1673 96.2029C32.4523 99.3548 36.6945 101.322 41.2229 101.792C45.7512 102.263 50.3074 101.21 54.1706 98.801C56.4885 97.3618 58.491 95.4681 60.0572 93.234C65.099 86.1889 72.7235 81.4246 81.2658 79.9814C86.4976 79.1998 91.2239 76.4233 94.4537 72.2337C97.6835 68.0442 99.1659 62.7671 98.5902 57.5088C98.0146 52.2505 95.4255 47.4194 91.3658 44.0283C87.3062 40.6371 82.0911 38.9494 76.8141 39.3188L76.8114 39.3145Z" fill="#512772"/>
</g>
<path d="M45.98 27.2798C42.1233 27.2798 38.3531 28.4234 35.1464 30.5661C31.9396 32.7088 29.4402 35.7543 27.9643 39.3175C26.4884 42.8806 26.1023 46.8014 26.8547 50.584C27.6071 54.3667 29.4643 57.8412 32.1914 60.5684C34.9185 63.2955 38.3931 65.1527 42.1757 65.9051C45.9584 66.6575 49.8792 66.2713 53.4423 64.7954C57.0055 63.3195 60.051 60.8202 62.1936 57.6134C64.3363 54.4066 65.48 50.6365 65.48 46.7798C65.4745 41.6097 63.4183 36.653 59.7625 32.9972C56.1068 29.3415 51.15 27.2852 45.98 27.2798ZM39.98 46.7798C39.98 45.5931 40.3319 44.4331 40.9912 43.4464C41.6505 42.4597 42.5875 41.6906 43.6839 41.2365C44.7802 40.7824 45.9866 40.6636 47.1505 40.8951C48.3144 41.1266 49.3835 41.698 50.2226 42.5371C51.0617 43.3763 51.6332 44.4454 51.8647 45.6092C52.0962 46.7731 51.9774 47.9795 51.5233 49.0759C51.0691 50.1722 50.3001 51.1093 49.3134 51.7686C48.3267 52.4279 47.1667 52.7798 45.98 52.7798C44.3887 52.7798 42.8626 52.1476 41.7373 51.0224C40.6121 49.8972 39.98 48.3711 39.98 46.7798ZM56.5325 34.1048L51.1906 39.4485C49.6699 38.3633 47.8482 37.7799 45.98 37.7799C44.1117 37.7799 42.2901 38.3633 40.7694 39.4485L35.4275 34.1048C38.3885 31.6333 42.1231 30.2796 45.98 30.2796C49.8369 30.2796 53.5715 31.6333 56.5325 34.1048ZM35.4275 59.4548L40.7694 54.111C42.2901 55.1963 44.1117 55.7796 45.98 55.7796C47.8482 55.7796 49.6699 55.1963 51.1906 54.111L56.5325 59.4548C53.5715 61.9262 49.8369 63.28 45.98 63.28C42.1231 63.28 38.3885 61.9262 35.4275 59.4548Z" fill="#3F7A8C"/>
</g>
<defs>
<clipPath id="clip0_1_271">
<rect width="91" height="91" fill="white" transform="translate(0 0.799805)"/>
</clipPath>
<clipPath id="clip1_1_271">
<rect width="131.005" height="130.997" fill="white" transform="translate(-44.76 25.46) rotate(-32)"/>
</clipPath>
</defs>
</svg>
