<svg width="91" height="92" viewBox="0 0 91 92" fill="none" xmlns="http://www.w3.org/2000/svg">
<g clip-path="url(#clip0_1_284)">
<g opacity="0.04" clip-path="url(#clip1_1_284)">
<path d="M88.6806 7.04305C90.1822 9.44622 90.9375 12.2407 90.8509 15.0732C90.7642 17.9057 89.8396 20.649 88.1939 22.9561C86.5482 25.2632 84.2553 27.0305 81.6052 28.0346C78.9551 29.0387 76.0668 29.2344 73.3055 28.597C70.5443 27.9596 68.0341 26.5177 66.0924 24.4537C64.1508 22.3897 62.8648 19.7962 62.3971 17.0013C61.9295 14.2064 62.3012 11.3355 63.4652 8.75169C64.6292 6.16789 66.5333 3.98723 68.9366 2.48547C72.1593 0.471669 76.05 -0.179502 79.7527 0.675212C83.4555 1.52992 86.6669 3.8205 88.6806 7.04305ZM15.772 52.6013C14.2704 50.1982 12.0898 48.2943 9.50596 47.1305C6.92216 45.9666 4.05121 45.5951 1.25617 46.0629C-1.53888 46.5307 -4.13248 47.8168 -6.19666 49.7585C-8.26085 51.7003 -9.7029 54.2105 -10.3405 56.9717C-10.978 59.7329 -10.7825 62.6211 -9.77854 65.271C-8.7746 67.921 -7.00735 70.2137 -4.70028 71.8593C-2.39321 73.5048 0.350062 74.4293 3.18263 74.5157C6.01521 74.6022 8.80985 73.8468 11.2132 72.345C14.4359 70.3312 16.7268 67.1197 17.5817 63.4171C18.4367 59.7144 17.7857 55.8239 15.772 52.6013ZM19.0284 38.4987C21.4317 36.9969 23.3358 34.8163 24.4998 32.2325C25.6638 29.6487 26.0355 26.7778 25.5678 23.9829C25.1002 21.1879 23.8142 18.5945 21.8725 16.5304C19.9308 14.4664 17.4207 13.0246 14.6594 12.3872C11.8982 11.7498 9.00989 11.9455 6.35978 12.9496C3.70968 13.9536 1.41679 15.721 -0.228927 18.0281C-1.87465 20.3352 -2.79929 23.0784 -2.88591 25.9109C-2.97254 28.7434 -2.21726 31.5379 -0.715596 33.9411C1.29807 37.1637 4.5095 39.4542 8.21222 40.309C11.9149 41.1637 15.8056 40.5125 19.0284 38.4987ZM50.2749 18.9737C52.6782 17.472 54.5823 15.2913 55.7463 12.7075C56.9103 10.1237 57.282 7.25282 56.8143 4.45788C56.3467 1.66294 55.0607 -0.930511 53.119 -2.99453C51.1773 -5.05854 48.6672 -6.50041 45.9059 -7.13779C43.1447 -7.77519 40.2564 -7.57946 37.6063 -6.57539C34.9562 -5.57132 32.6633 -3.80399 31.0176 -1.49689C29.3719 0.810207 28.4472 3.55345 28.3606 6.38595C28.274 9.21845 29.0292 12.013 30.5309 14.4161C32.5446 17.6387 35.756 19.9293 39.4587 20.784C43.1614 21.6387 47.0521 20.9875 50.2749 18.9737ZM76.8114 39.1143C74.4401 39.2434 72.0665 38.9037 69.8266 38.1146C67.5867 37.3255 65.5245 36.1024 63.7578 34.5154C60.123 31.2671 55.532 29.2863 50.6749 28.8707C45.8177 28.455 40.9567 29.6269 36.8225 32.2103C32.6882 34.7936 29.504 38.6489 27.7483 43.1967C25.9927 47.7445 25.7605 52.7392 27.0866 57.4301C28.4048 62.021 27.8482 66.9474 25.539 71.1287C23.2913 75.088 22.4277 79.6836 23.0848 84.1885C23.742 88.6935 25.8823 92.8507 29.1673 96.0027C32.4523 99.1546 36.6945 101.121 41.2229 101.592C45.7512 102.063 50.3074 101.01 54.1706 98.6008C56.4885 97.1616 58.491 95.2679 60.0572 93.0338C65.099 85.9887 72.7235 81.2244 81.2658 79.7812C86.4976 78.9997 91.2239 76.2231 94.4537 72.0335C97.6835 67.844 99.1659 62.5669 98.5902 57.3086C98.0146 52.0503 95.4255 47.2192 91.3658 43.8281C87.3062 40.4369 82.0911 38.7492 76.8141 39.1186L76.8114 39.1143Z" fill="#512772"/>
</g>
<path d="M66.9256 46.0178L63.8469 29.5178C63.7716 29.1156 63.6149 28.733 63.3864 28.3936C63.1578 28.0542 62.8623 27.7652 62.5179 27.5443C62.1735 27.3233 61.7875 27.1752 61.3837 27.1089C60.98 27.0427 60.5669 27.0597 60.17 27.159L60.1119 27.1759L50.2644 30.0803H41.6956L31.8481 27.1853L31.79 27.1684C31.393 27.0691 30.98 27.052 30.5762 27.1183C30.1724 27.1845 29.7865 27.3327 29.4421 27.5536C29.0977 27.7746 28.8021 28.0636 28.5736 28.403C28.345 28.7424 28.1883 29.1249 28.1131 29.5271L25.0344 46.0178C24.9027 46.6782 25.0004 47.3638 25.3114 47.9611C25.6223 48.5585 26.1279 49.0318 26.7444 49.3028C27.1392 49.4838 27.5681 49.5784 28.0025 49.5803C28.5224 49.58 29.0326 49.4401 29.48 49.1753V57.0803C29.48 59.0694 30.2702 60.977 31.6767 62.3836C33.0832 63.7901 34.9909 64.5803 36.98 64.5803H54.98C56.9691 64.5803 58.8768 63.7901 60.2833 62.3836C61.6898 60.977 62.48 59.0694 62.48 57.0803V49.1771C62.9268 49.4415 63.4364 49.5814 63.9556 49.5821C64.3904 49.5809 64.82 49.4869 65.2156 49.3065C65.8328 49.0354 66.3389 48.5615 66.6499 47.9634C66.9609 47.3652 67.0582 46.6788 66.9256 46.0178ZM54.98 61.5803H47.48V59.2009L50.0412 56.6415C50.3227 56.3601 50.4808 55.9783 50.4808 55.5803C50.4808 55.1822 50.3227 54.8005 50.0412 54.519C49.7598 54.2376 49.378 54.0794 48.98 54.0794C48.5819 54.0794 48.2002 54.2376 47.9187 54.519L45.98 56.4596L44.0412 54.519C43.7598 54.2376 43.378 54.0794 42.98 54.0794C42.5819 54.0794 42.2002 54.2376 41.9187 54.519C41.6373 54.8005 41.4791 55.1822 41.4791 55.5803C41.4791 55.9783 41.6373 56.3601 41.9187 56.6415L44.48 59.2009V61.5803H36.98C35.7865 61.5803 34.6419 61.1062 33.798 60.2622C32.9541 59.4183 32.48 58.2737 32.48 57.0803V45.6634L42.2169 33.0803H49.7431L59.48 45.6634V57.0803C59.48 58.2737 59.0059 59.4183 58.162 60.2622C57.3181 61.1062 56.1735 61.5803 54.98 61.5803ZM41.48 48.8303C41.48 49.2753 41.348 49.7103 41.1008 50.0803C40.8536 50.4503 40.5022 50.7387 40.091 50.909C39.6799 51.0793 39.2275 51.1238 38.791 51.037C38.3546 50.9502 37.9537 50.7359 37.639 50.4212C37.3243 50.1066 37.11 49.7057 37.0232 49.2692C36.9364 48.8328 36.981 48.3804 37.1513 47.9692C37.3215 47.5581 37.6099 47.2067 37.9799 46.9595C38.35 46.7122 38.785 46.5803 39.23 46.5803C39.8267 46.5803 40.399 46.8173 40.821 47.2393C41.2429 47.6612 41.48 48.2335 41.48 48.8303ZM54.98 48.8303C54.98 49.2753 54.848 49.7103 54.6008 50.0803C54.3536 50.4503 54.0022 50.7387 53.591 50.909C53.1799 51.0793 52.7275 51.1238 52.291 51.037C51.8546 50.9502 51.4537 50.7359 51.139 50.4212C50.8243 50.1066 50.61 49.7057 50.5232 49.2692C50.4364 48.8328 50.481 48.3804 50.6513 47.9692C50.8216 47.5581 51.1099 47.2067 51.4799 46.9595C51.85 46.7122 52.285 46.5803 52.73 46.5803C53.3267 46.5803 53.899 46.8173 54.321 47.2393C54.7429 47.6612 54.98 48.2335 54.98 48.8303Z" fill="#3F7A8C"/>
</g>
<defs>
<clipPath id="clip0_1_284">
<rect width="91" height="91" fill="white" transform="translate(0 0.589844)"/>
</clipPath>
<clipPath id="clip1_1_284">
<rect width="131.005" height="130.997" fill="white" transform="translate(-44.76 25.2598) rotate(-32)"/>
</clipPath>
</defs>
</svg>
