<svg width="91" height="92" viewBox="0 0 91 92" fill="none" xmlns="http://www.w3.org/2000/svg">
<g clip-path="url(#clip0_1_297)">
<g opacity="0.04" clip-path="url(#clip1_1_297)">
<path d="M88.6824 6.83669C90.1842 9.24001 90.9396 12.0347 90.853 14.8673C90.7665 17.6999 89.8419 20.4433 88.1962 22.7504C86.5505 25.0576 84.2577 26.825 81.6075 27.829C78.9574 28.833 76.0691 29.0287 73.3078 28.3912C70.5464 27.7537 68.0362 26.3117 66.0944 24.2475C64.1526 22.1833 62.8666 19.5897 62.3988 16.7946C61.9311 13.9996 62.3027 11.1286 63.4667 8.54467C64.6306 5.96079 66.5346 3.78008 68.938 2.27832C72.1607 0.264522 76.0515 -0.386566 79.7543 0.468296C83.4571 1.32315 86.6686 3.61393 88.6824 6.83669ZM15.7739 52.395C14.2722 49.9916 12.0915 48.0876 9.50757 46.9237C6.92369 45.7597 4.05268 45.3881 1.2576 45.8558C-1.53749 46.3236 -4.1311 47.6096 -6.19526 49.5514C-8.25943 51.4932 -9.70143 54.0034 -10.3389 56.7648C-10.9764 59.5261 -10.7808 62.4144 -9.77675 65.0645C-8.77271 67.7147 -7.00537 70.0075 -4.69821 71.6532C-2.39105 73.2989 0.352301 74.2235 3.18493 74.31C6.01755 74.3966 8.81223 73.6412 11.2156 72.1394C14.4383 70.1256 16.7291 66.9141 17.5839 63.2113C18.4388 59.5085 17.7877 55.6177 15.7739 52.395ZM19.0299 38.2918C21.4332 36.79 23.3373 34.6093 24.5012 32.0254C25.6652 29.4415 26.0368 26.5705 25.569 23.7754C25.1013 20.9804 23.8152 18.3868 21.8735 16.3226C19.9317 14.2584 17.4214 12.8164 14.6601 12.1789C11.8988 11.5414 9.01046 11.7371 6.36034 12.7411C3.71022 13.7451 1.41734 15.5125 -0.22834 17.8196C-1.87402 20.1268 -2.7986 22.8702 -2.88514 25.7028C-2.97169 28.5354 -2.21632 31.3301 -0.714555 33.7334C1.29925 36.9562 4.5108 39.2469 8.21361 40.1018C11.9164 40.9567 15.8072 40.3056 19.0299 38.2918ZM50.2764 18.7668C52.6797 17.265 54.5838 15.0843 55.7477 12.5004C56.9117 9.91656 57.2833 7.04555 56.8155 4.25047C56.3478 1.45539 55.0617 -1.13822 53.12 -3.20239C51.1782 -5.26655 48.6679 -6.70856 45.9066 -7.34606C43.1453 -7.98356 40.257 -7.78791 37.6068 -6.78387C34.9567 -5.77983 32.6638 -4.01249 31.0182 -1.70533C29.3725 0.601831 28.4479 3.34518 28.3614 6.1778C28.2748 9.01043 29.0302 11.8051 30.5319 14.2084C32.5457 17.4312 35.7573 19.722 39.4601 20.5768C43.1629 21.4317 47.0537 20.7806 50.2764 18.7668ZM76.814 38.9091C74.4426 39.0382 72.069 38.6984 69.8291 37.9091C67.5891 37.1199 65.5268 35.8967 63.7601 34.3096C60.1251 31.0611 55.534 29.08 50.6767 28.6642C45.8194 28.2484 40.9584 29.4202 36.8241 32.0036C32.6899 34.5869 29.5057 38.4423 27.7502 42.9903C25.9946 47.5383 25.7626 52.5331 27.0888 57.2243C28.4072 61.8155 27.8508 66.7421 25.5416 70.9235C23.2939 74.8829 22.4305 79.4787 23.0878 83.9839C23.745 88.489 25.8855 92.6465 29.1707 95.7987C32.4558 98.9509 36.6982 100.918 41.2266 101.389C45.7551 101.859 50.3113 100.807 54.1745 98.3977C56.4925 96.9585 58.4949 95.0647 60.0611 92.8306C65.1028 85.7853 72.7272 81.021 81.2696 79.578C86.5016 78.7966 91.2278 76.02 94.4576 71.8304C97.6873 67.6407 99.1696 62.3634 98.5938 57.1049C98.0179 51.8463 95.4287 47.0149 91.3688 43.6235C87.309 40.2321 82.0938 38.5441 76.8167 38.9134L76.814 38.9091Z" fill="#512772"/>
</g>
<path d="M44.48 41.8804H26.48C26.2743 41.8808 26.0708 41.839 25.882 41.7575C25.6933 41.6759 25.5232 41.5565 25.3826 41.4065C25.2419 41.2565 25.1336 41.0792 25.0643 40.8856C24.9951 40.692 24.9664 40.4862 24.98 40.281C25.0132 39.8946 25.1916 39.5352 25.4794 39.2753C25.7672 39.0153 26.1429 38.8742 26.5306 38.8804H42.98C43.1856 38.8808 43.3891 38.839 43.5779 38.7575C43.7667 38.6759 43.9367 38.5565 44.0774 38.4065C44.2181 38.2565 44.3264 38.0792 44.3956 37.8856C44.4649 37.692 44.4936 37.4862 44.48 37.281C44.4468 36.8946 44.2683 36.5352 43.9805 36.2753C43.6928 36.0153 43.3171 35.8742 42.9294 35.8804H39.2844C39.176 35.8815 39.0687 35.8592 38.9698 35.8149C38.8709 35.7706 38.7828 35.7054 38.7115 35.6238C38.6403 35.5422 38.5875 35.4461 38.5569 35.3421C38.5263 35.2382 38.5186 35.1288 38.5344 35.0216C38.6989 33.8837 39.1869 32.8171 39.9403 31.9487C40.6937 31.0802 41.6807 30.4465 42.7839 30.1229C43.8872 29.7993 45.0601 29.7995 46.1633 30.1235C47.2664 30.4475 48.2532 31.0815 49.0063 31.9503C49.7593 32.819 50.247 33.8858 50.4111 35.0237C50.5753 36.1617 50.409 37.3228 49.9322 38.3689C49.4553 39.4151 48.6879 40.3022 47.7214 40.9247C46.7548 41.5472 45.6297 41.8789 44.48 41.8804ZM66.965 41.451C66.8594 39.9748 66.212 38.5898 65.1471 37.562C64.0823 36.5342 62.6752 35.9362 61.1962 35.883C59.7172 35.8297 58.2707 36.3249 57.1347 37.2734C55.9987 38.222 55.2533 39.5569 55.0419 41.0216C55.0261 41.1288 55.0338 41.2382 55.0644 41.3421C55.095 41.4461 55.1478 41.5422 55.219 41.6238C55.2903 41.7054 55.3784 41.7706 55.4773 41.8149C55.5762 41.8592 55.6835 41.8815 55.7919 41.8804H59.4369C59.824 41.8752 60.1987 42.0167 60.4857 42.2766C60.7726 42.5364 60.9506 42.8953 60.9837 43.281C60.9974 43.4862 60.9686 43.692 60.8994 43.8856C60.8301 44.0792 60.7218 44.2565 60.5811 44.4065C60.4405 44.5565 60.2705 44.6759 60.0817 44.7575C59.8929 44.839 59.6894 44.8808 59.4837 44.8804H28.0306C27.6429 44.8742 27.2672 45.0153 26.9794 45.2753C26.6916 45.5352 26.5132 45.8946 26.48 46.281C26.4664 46.4862 26.4951 46.692 26.5643 46.8856C26.6336 47.0792 26.7419 47.2565 26.8826 47.4065C27.0232 47.5565 27.1933 47.6759 27.382 47.7575C27.5708 47.839 27.7743 47.8808 27.98 47.8804H60.98C61.8041 47.8804 62.6194 47.7107 63.3751 47.3818C64.1307 47.0528 64.8105 46.5718 65.3721 45.9685C65.9336 45.3653 66.3648 44.6529 66.6389 43.8756C66.913 43.0984 67.024 42.273 66.965 41.451ZM50.48 50.8804H29.5306C29.1429 50.8742 28.7672 51.0153 28.4794 51.2753C28.1916 51.5352 28.0132 51.8946 27.98 52.281C27.9664 52.4862 27.9951 52.692 28.0643 52.8856C28.1336 53.0792 28.2419 53.2565 28.3826 53.4065C28.5232 53.5565 28.6933 53.6759 28.882 53.7575C29.0708 53.839 29.2743 53.8808 29.48 53.8804H48.9294C49.3165 53.8752 49.6912 54.0167 49.9782 54.2766C50.2651 54.5364 50.4431 54.8953 50.4762 55.281C50.4899 55.4862 50.4611 55.692 50.3919 55.8856C50.3226 56.0792 50.2143 56.2565 50.0736 56.4065C49.933 56.5565 49.763 56.6759 49.5742 56.7575C49.3854 56.839 49.1819 56.8808 48.9762 56.8804H45.2844C45.176 56.8792 45.0687 56.9016 44.9698 56.9459C44.8709 56.9902 44.7828 57.0554 44.7115 57.137C44.6403 57.2186 44.5875 57.3147 44.5569 57.4186C44.5263 57.5226 44.5186 57.6319 44.5344 57.7391C44.6989 58.877 45.1869 59.9436 45.9403 60.8121C46.6937 61.6805 47.6807 62.3143 48.7839 62.6378C49.8872 62.9614 51.0601 62.9612 52.1633 62.6372C53.2664 62.3133 54.2532 61.6792 55.0063 60.8105C55.7593 59.9417 56.247 58.8749 56.4111 57.737C56.5753 56.5991 56.409 55.438 55.9322 54.3918C55.4553 53.3457 54.6879 52.4585 53.7214 51.836C52.7548 51.2135 51.6297 50.8818 50.48 50.8804Z" fill="#3F7A8C"/>
</g>
<defs>
<clipPath id="clip0_1_297">
<rect width="91" height="91" fill="white" transform="translate(0 0.390137)"/>
</clipPath>
<clipPath id="clip1_1_297">
<rect width="131.005" height="131.005" fill="white" transform="translate(-44.76 25.0503) rotate(-32)"/>
</clipPath>
</defs>
</svg>
