<svg width="91" height="92" viewBox="0 0 91 92" fill="none" xmlns="http://www.w3.org/2000/svg">
<g clip-path="url(#clip0_1_310)">
<g opacity="0.04" clip-path="url(#clip1_1_310)">
<path d="M88.6806 6.63338C90.1822 9.03655 90.9375 11.8311 90.8509 14.6636C90.7642 17.4961 89.8396 20.2393 88.1939 22.5464C86.5482 24.8535 84.2553 26.6208 81.6052 27.6249C78.9551 28.629 76.0668 28.8247 73.3055 28.1873C70.5443 27.5499 68.0341 26.1081 66.0924 24.044C64.1508 21.98 62.8648 19.3866 62.3971 16.5916C61.9295 13.7967 62.3012 10.9258 63.4652 8.34202C64.6292 5.75822 66.5333 3.57756 68.9366 2.0758C72.1593 0.0620014 76.05 -0.58917 79.7527 0.265544C83.4555 1.12025 86.6669 3.41084 88.6806 6.63338ZM15.772 52.1917C14.2704 49.7885 12.0898 47.8846 9.50596 46.7208C6.92216 45.557 4.05121 45.1855 1.25617 45.6532C-1.53888 46.121 -4.13248 47.4071 -6.19666 49.3489C-8.26085 51.2906 -9.7029 53.8008 -10.3405 56.562C-10.978 59.3232 -10.7825 62.2114 -9.77854 64.8614C-8.7746 67.5113 -7.00735 69.8041 -4.70028 71.4496C-2.39321 73.0951 0.350062 74.0196 3.18263 74.106C6.01521 74.1925 8.80985 73.4371 11.2132 71.9353C14.4359 69.9215 16.7268 66.7101 17.5817 63.0074C18.4367 59.3047 17.7857 55.4142 15.772 52.1917ZM19.0284 38.089C21.4317 36.5873 23.3358 34.4066 24.4998 31.8228C25.6638 29.239 26.0355 26.3681 25.5678 23.5732C25.1002 20.7782 23.8142 18.1848 21.8725 16.1208C19.9308 14.0568 17.4207 12.6149 14.6594 11.9775C11.8982 11.3401 9.00989 11.5358 6.35978 12.5399C3.70968 13.544 1.41679 15.3113 -0.228927 17.6184C-1.87465 19.9255 -2.79929 22.6688 -2.88591 25.5013C-2.97254 28.3338 -2.21726 31.1283 -0.715596 33.5314C1.29807 36.754 4.5095 39.0446 8.21222 39.8993C11.9149 40.754 15.8056 40.1028 19.0284 38.089ZM50.2749 18.5641C52.6782 17.0623 54.5823 14.8816 55.7463 12.2978C56.9103 9.71404 57.282 6.84315 56.8143 4.04821C56.3467 1.25328 55.0607 -1.34018 53.119 -3.40419C51.1773 -5.4682 48.6672 -6.91007 45.9059 -7.54746C43.1447 -8.18485 40.2564 -7.98913 37.6063 -6.98506C34.9562 -5.98099 32.6633 -4.21366 31.0176 -1.90656C29.3719 0.400539 28.4472 3.14379 28.3606 5.97628C28.274 8.80878 29.0292 11.6033 30.5309 14.0065C32.5446 17.229 35.756 19.5196 39.4587 20.3743C43.1614 21.229 47.0521 20.5779 50.2749 18.5641ZM76.8114 38.7046C74.4401 38.8338 72.0665 38.4941 69.8266 37.7049C67.5867 36.9158 65.5245 35.6927 63.7578 34.1057C60.123 30.8575 55.532 28.8767 50.6749 28.461C45.8177 28.0453 40.9567 29.2172 36.8225 31.8006C32.6882 34.384 29.504 38.2393 27.7483 42.7871C25.9927 47.3349 25.7605 52.3295 27.0866 57.0204C28.4048 61.6113 27.8482 66.5378 25.539 70.7191C23.2913 74.6784 22.4277 79.2739 23.0848 83.7789C23.742 88.2838 25.8823 92.441 29.1673 95.593C32.4523 98.745 36.6945 100.712 41.2229 101.182C45.7512 101.653 50.3074 100.6 54.1706 98.1911C56.4885 96.7519 58.491 94.8582 60.0572 92.6241C65.099 85.579 72.7235 80.8147 81.2658 79.3715C86.4976 78.59 91.2239 75.8134 94.4537 71.6239C97.6835 67.4343 99.1659 62.1572 98.5902 56.8989C98.0146 51.6407 95.4255 46.8095 91.3658 43.4184C87.3062 40.0273 82.0911 38.3395 76.8141 38.709L76.8114 38.7046Z" fill="#512772"/>
</g>
<path d="M63.7606 28.4586C63.2018 28.1947 62.5753 28.1099 61.9665 28.2156C61.3577 28.3213 60.7964 28.6124 60.3593 29.0492C60.3331 29.0754 60.3106 29.0998 60.2881 29.1261L57.0518 32.8573C53.7338 30.7812 49.8987 29.6803 45.9846 29.6803C42.0706 29.6803 38.2355 30.7812 34.9175 32.8573L31.6718 29.1261C31.6493 29.0998 31.6268 29.0754 31.6006 29.0492C31.1635 28.6124 30.6022 28.3213 29.9934 28.2156C29.3847 28.1099 28.7581 28.1947 28.1993 28.4586C27.6777 28.7147 27.2393 29.1135 26.935 29.6086C26.6307 30.1037 26.4729 30.6749 26.48 31.2561V47.6698C26.48 56.8573 33.9912 64.4754 43.6475 65.5423C43.7527 65.5539 43.8591 65.5432 43.9599 65.5107C44.0606 65.4783 44.1533 65.4249 44.232 65.3541C44.3106 65.2832 44.3734 65.1966 44.4161 65.0997C44.4588 65.0029 44.4806 64.8981 44.48 64.7923V58.7923L41.9637 56.2742C41.6784 55.9973 41.5112 55.621 41.4968 55.2237C41.4825 54.8264 41.6222 54.439 41.8868 54.1423C42.0244 53.9958 42.19 53.8784 42.3738 53.7971C42.5576 53.7159 42.7559 53.6724 42.9569 53.6692C43.1578 53.6661 43.3574 53.7033 43.5436 53.7788C43.7299 53.8543 43.8991 53.9664 44.0412 54.1086L45.98 56.0473L47.9187 54.1067C48.0608 53.9645 48.23 53.8524 48.4163 53.7769C48.6026 53.7015 48.8021 53.6642 49.003 53.6673C49.204 53.6705 49.4023 53.714 49.5861 53.7953C49.7699 53.8765 49.9355 53.9939 50.0731 54.1404C50.3377 54.4371 50.4774 54.8245 50.4631 55.2218C50.4488 55.6191 50.2815 55.9955 49.9962 56.2723L47.48 58.7904V64.7904C47.4793 64.8963 47.5011 65.001 47.5438 65.0979C47.5866 65.1947 47.6493 65.2814 47.7279 65.3522C47.8066 65.423 47.8993 65.4764 48.0001 65.5089C48.1008 65.5413 48.2073 65.5521 48.3125 65.5404C57.9687 64.4736 65.48 56.8573 65.48 47.6698V31.2561C65.487 30.6749 65.3292 30.1037 65.0249 29.6086C64.7206 29.1135 64.2822 28.7147 63.7606 28.4586ZM37.73 50.6698C37.285 50.6698 36.8499 50.5378 36.4799 50.2906C36.1099 50.0434 35.8215 49.692 35.6512 49.2808C35.4809 48.8697 35.4364 48.4173 35.5232 47.9808C35.61 47.5444 35.8243 47.1435 36.139 46.8288C36.4536 46.5141 36.8546 46.2999 37.291 46.213C37.7275 46.1262 38.1799 46.1708 38.591 46.3411C39.0021 46.5114 39.3535 46.7998 39.6008 47.1698C39.848 47.5398 39.98 47.9748 39.98 48.4198C39.98 49.0165 39.7429 49.5888 39.321 50.0108C38.899 50.4327 38.3267 50.6698 37.73 50.6698ZM41.48 38.6698C41.48 39.0676 41.3219 39.4492 41.0406 39.7305C40.7593 40.0118 40.3778 40.1698 39.98 40.1698C39.5821 40.1698 39.2006 40.0118 38.9193 39.7305C38.638 39.4492 38.48 39.0676 38.48 38.6698V35.1073C38.48 34.7095 38.638 34.3279 38.9193 34.0466C39.2006 33.7653 39.5821 33.6073 39.98 33.6073C40.3778 33.6073 40.7593 33.7653 41.0406 34.0466C41.3219 34.3279 41.48 34.7095 41.48 35.1073V38.6698ZM47.48 38.6698C47.48 39.0676 47.3219 39.4492 47.0406 39.7305C46.7593 40.0118 46.3778 40.1698 45.98 40.1698C45.5821 40.1698 45.2006 40.0118 44.9193 39.7305C44.638 39.4492 44.48 39.0676 44.48 38.6698V34.1698C44.48 33.772 44.638 33.3904 44.9193 33.1091C45.2006 32.8278 45.5821 32.6698 45.98 32.6698C46.3778 32.6698 46.7593 32.8278 47.0406 33.1091C47.3219 33.3904 47.48 33.772 47.48 34.1698V38.6698ZM50.48 38.6698V35.1073C50.48 34.7095 50.638 34.3279 50.9193 34.0466C51.2006 33.7653 51.5821 33.6073 51.98 33.6073C52.3778 33.6073 52.7593 33.7653 53.0406 34.0466C53.3219 34.3279 53.48 34.7095 53.48 35.1073V38.6698C53.48 39.0676 53.3219 39.4492 53.0406 39.7305C52.7593 40.0118 52.3778 40.1698 51.98 40.1698C51.5821 40.1698 51.2006 40.0118 50.9193 39.7305C50.638 39.4492 50.48 39.0676 50.48 38.6698ZM54.23 50.6698C53.785 50.6698 53.3499 50.5378 52.9799 50.2906C52.6099 50.0434 52.3215 49.692 52.1512 49.2808C51.9809 48.8697 51.9364 48.4173 52.0232 47.9808C52.11 47.5444 52.3243 47.1435 52.639 46.8288C52.9536 46.5141 53.3546 46.2999 53.791 46.213C54.2275 46.1262 54.6799 46.1708 55.091 46.3411C55.5021 46.5114 55.8535 46.7998 56.1008 47.1698C56.348 47.5398 56.48 47.9748 56.48 48.4198C56.48 49.0165 56.2429 49.5888 55.8209 50.0108C55.399 50.4327 54.8267 50.6698 54.23 50.6698Z" fill="#3F7A8C"/>
</g>
<defs>
<clipPath id="clip0_1_310">
<rect width="91" height="91" fill="white" transform="translate(0 0.189941)"/>
</clipPath>
<clipPath id="clip1_1_310">
<rect width="131.005" height="130.997" fill="white" transform="translate(-44.76 24.8501) rotate(-32)"/>
</clipPath>
</defs>
</svg>
